<mxfile host="Electron" agent="Mozilla/5.0 (Windows NT 10.0; Win64; x64) AppleWebKit/537.36 (KHTML, like Gecko) draw.io/26.0.4 Chrome/128.0.6613.186 Electron/32.2.5 Safari/537.36" version="26.0.4">
  <diagram name="Page-1" id="fm41qtYzZol_Z1XYJY9Y">
    <mxGraphModel dx="3154" dy="2056" grid="1" gridSize="10" guides="1" tooltips="1" connect="1" arrows="1" fold="1" page="1" pageScale="1" pageWidth="1654" pageHeight="1169" math="0" shadow="0">
      <root>
        <mxCell id="0" />
        <mxCell id="1" parent="0" />
        <mxCell id="pazXSuaWY3IOzkwAcKcH-1" style="edgeStyle=orthogonalEdgeStyle;rounded=0;orthogonalLoop=1;jettySize=auto;html=1;exitX=0.5;exitY=1;exitDx=0;exitDy=0;entryX=0;entryY=0.5;entryDx=0;entryDy=0;" edge="1" parent="1" source="pazXSuaWY3IOzkwAcKcH-2" target="pazXSuaWY3IOzkwAcKcH-232">
          <mxGeometry relative="1" as="geometry" />
        </mxCell>
        <mxCell id="pazXSuaWY3IOzkwAcKcH-2" value="iv_p_in&amp;nbsp; [53]" style="text;html=1;align=center;verticalAlign=middle;whiteSpace=wrap;rounded=0;" vertex="1" parent="1">
          <mxGeometry x="10" y="-30" width="60" height="30" as="geometry" />
        </mxCell>
        <mxCell id="pazXSuaWY3IOzkwAcKcH-3" style="edgeStyle=orthogonalEdgeStyle;rounded=0;orthogonalLoop=1;jettySize=auto;html=1;exitX=0.5;exitY=1;exitDx=0;exitDy=0;entryX=0;entryY=0.5;entryDx=0;entryDy=0;" edge="1" parent="1" source="pazXSuaWY3IOzkwAcKcH-4" target="pazXSuaWY3IOzkwAcKcH-230">
          <mxGeometry relative="1" as="geometry" />
        </mxCell>
        <mxCell id="pazXSuaWY3IOzkwAcKcH-4" value="iv_p_in&amp;nbsp; [52]" style="text;html=1;align=center;verticalAlign=middle;whiteSpace=wrap;rounded=0;" vertex="1" parent="1">
          <mxGeometry x="70" y="-30" width="60" height="30" as="geometry" />
        </mxCell>
        <mxCell id="pazXSuaWY3IOzkwAcKcH-5" style="edgeStyle=orthogonalEdgeStyle;rounded=0;orthogonalLoop=1;jettySize=auto;html=1;exitX=0.5;exitY=1;exitDx=0;exitDy=0;entryX=0;entryY=0.5;entryDx=0;entryDy=0;" edge="1" parent="1" source="pazXSuaWY3IOzkwAcKcH-6" target="pazXSuaWY3IOzkwAcKcH-226">
          <mxGeometry relative="1" as="geometry" />
        </mxCell>
        <mxCell id="pazXSuaWY3IOzkwAcKcH-6" value="iv_p_in&amp;nbsp; [49]" style="text;html=1;align=center;verticalAlign=middle;whiteSpace=wrap;rounded=0;" vertex="1" parent="1">
          <mxGeometry x="250" y="-30" width="60" height="30" as="geometry" />
        </mxCell>
        <mxCell id="pazXSuaWY3IOzkwAcKcH-7" style="edgeStyle=orthogonalEdgeStyle;rounded=0;orthogonalLoop=1;jettySize=auto;html=1;exitX=0.5;exitY=1;exitDx=0;exitDy=0;entryX=0;entryY=0.5;entryDx=0;entryDy=0;" edge="1" parent="1" source="pazXSuaWY3IOzkwAcKcH-8" target="pazXSuaWY3IOzkwAcKcH-220">
          <mxGeometry relative="1" as="geometry" />
        </mxCell>
        <mxCell id="pazXSuaWY3IOzkwAcKcH-8" value="iv_p_in&amp;nbsp; [50]" style="text;html=1;align=center;verticalAlign=middle;whiteSpace=wrap;rounded=0;" vertex="1" parent="1">
          <mxGeometry x="190" y="-30" width="60" height="30" as="geometry" />
        </mxCell>
        <mxCell id="pazXSuaWY3IOzkwAcKcH-9" style="edgeStyle=orthogonalEdgeStyle;rounded=0;orthogonalLoop=1;jettySize=auto;html=1;exitX=0.5;exitY=1;exitDx=0;exitDy=0;entryX=0;entryY=0.5;entryDx=0;entryDy=0;" edge="1" parent="1" source="pazXSuaWY3IOzkwAcKcH-10" target="pazXSuaWY3IOzkwAcKcH-228">
          <mxGeometry relative="1" as="geometry" />
        </mxCell>
        <mxCell id="pazXSuaWY3IOzkwAcKcH-10" value="iv_p_in&amp;nbsp; [51]" style="text;html=1;align=center;verticalAlign=middle;whiteSpace=wrap;rounded=0;" vertex="1" parent="1">
          <mxGeometry x="130" y="-30" width="60" height="30" as="geometry" />
        </mxCell>
        <mxCell id="pazXSuaWY3IOzkwAcKcH-11" style="edgeStyle=orthogonalEdgeStyle;rounded=0;orthogonalLoop=1;jettySize=auto;html=1;exitX=0.5;exitY=1;exitDx=0;exitDy=0;entryX=0;entryY=0.5;entryDx=0;entryDy=0;" edge="1" parent="1" source="pazXSuaWY3IOzkwAcKcH-12" target="pazXSuaWY3IOzkwAcKcH-222">
          <mxGeometry relative="1" as="geometry" />
        </mxCell>
        <mxCell id="pazXSuaWY3IOzkwAcKcH-12" value="iv_p_in&amp;nbsp; [47]" style="text;html=1;align=center;verticalAlign=middle;whiteSpace=wrap;rounded=0;" vertex="1" parent="1">
          <mxGeometry x="370" y="-30" width="60" height="30" as="geometry" />
        </mxCell>
        <mxCell id="pazXSuaWY3IOzkwAcKcH-13" style="edgeStyle=orthogonalEdgeStyle;rounded=0;orthogonalLoop=1;jettySize=auto;html=1;exitX=0.5;exitY=1;exitDx=0;exitDy=0;entryX=0;entryY=0.5;entryDx=0;entryDy=0;" edge="1" parent="1" source="pazXSuaWY3IOzkwAcKcH-14" target="pazXSuaWY3IOzkwAcKcH-224">
          <mxGeometry relative="1" as="geometry" />
        </mxCell>
        <mxCell id="pazXSuaWY3IOzkwAcKcH-14" value="iv_p_in&amp;nbsp; [48]" style="text;html=1;align=center;verticalAlign=middle;whiteSpace=wrap;rounded=0;" vertex="1" parent="1">
          <mxGeometry x="310" y="-30" width="60" height="30" as="geometry" />
        </mxCell>
        <mxCell id="pazXSuaWY3IOzkwAcKcH-15" style="edgeStyle=orthogonalEdgeStyle;rounded=0;orthogonalLoop=1;jettySize=auto;html=1;exitX=0.5;exitY=1;exitDx=0;exitDy=0;entryX=0;entryY=0.5;entryDx=0;entryDy=0;" edge="1" parent="1" source="pazXSuaWY3IOzkwAcKcH-16" target="pazXSuaWY3IOzkwAcKcH-218">
          <mxGeometry relative="1" as="geometry" />
        </mxCell>
        <mxCell id="pazXSuaWY3IOzkwAcKcH-16" value="iv_p_in&amp;nbsp; [46]" style="text;html=1;align=center;verticalAlign=middle;whiteSpace=wrap;rounded=0;" vertex="1" parent="1">
          <mxGeometry x="430" y="-30" width="60" height="30" as="geometry" />
        </mxCell>
        <mxCell id="pazXSuaWY3IOzkwAcKcH-17" style="edgeStyle=orthogonalEdgeStyle;rounded=0;orthogonalLoop=1;jettySize=auto;html=1;exitX=0.5;exitY=1;exitDx=0;exitDy=0;entryX=0;entryY=0.5;entryDx=0;entryDy=0;" edge="1" parent="1" source="pazXSuaWY3IOzkwAcKcH-18" target="pazXSuaWY3IOzkwAcKcH-214">
          <mxGeometry relative="1" as="geometry" />
        </mxCell>
        <mxCell id="pazXSuaWY3IOzkwAcKcH-18" value="iv_p_in&amp;nbsp; [44]" style="text;html=1;align=center;verticalAlign=middle;whiteSpace=wrap;rounded=0;" vertex="1" parent="1">
          <mxGeometry x="550" y="-30" width="60" height="30" as="geometry" />
        </mxCell>
        <mxCell id="pazXSuaWY3IOzkwAcKcH-19" style="edgeStyle=orthogonalEdgeStyle;rounded=0;orthogonalLoop=1;jettySize=auto;html=1;exitX=0.5;exitY=1;exitDx=0;exitDy=0;entryX=0;entryY=0.5;entryDx=0;entryDy=0;" edge="1" parent="1" source="pazXSuaWY3IOzkwAcKcH-20" target="pazXSuaWY3IOzkwAcKcH-216">
          <mxGeometry relative="1" as="geometry" />
        </mxCell>
        <mxCell id="pazXSuaWY3IOzkwAcKcH-20" value="iv_p_in&amp;nbsp; [45]" style="text;html=1;align=center;verticalAlign=middle;whiteSpace=wrap;rounded=0;" vertex="1" parent="1">
          <mxGeometry x="490" y="-30" width="60" height="30" as="geometry" />
        </mxCell>
        <mxCell id="pazXSuaWY3IOzkwAcKcH-21" style="edgeStyle=orthogonalEdgeStyle;rounded=0;orthogonalLoop=1;jettySize=auto;html=1;exitX=0.5;exitY=1;exitDx=0;exitDy=0;entryX=0;entryY=0.5;entryDx=0;entryDy=0;" edge="1" parent="1" source="pazXSuaWY3IOzkwAcKcH-22" target="pazXSuaWY3IOzkwAcKcH-190">
          <mxGeometry relative="1" as="geometry" />
        </mxCell>
        <mxCell id="pazXSuaWY3IOzkwAcKcH-22" value="iv_p_in&amp;nbsp; [43]" style="text;html=1;align=center;verticalAlign=middle;whiteSpace=wrap;rounded=0;" vertex="1" parent="1">
          <mxGeometry x="610" y="-30" width="60" height="30" as="geometry" />
        </mxCell>
        <mxCell id="pazXSuaWY3IOzkwAcKcH-23" style="edgeStyle=orthogonalEdgeStyle;rounded=0;orthogonalLoop=1;jettySize=auto;html=1;exitX=0.5;exitY=1;exitDx=0;exitDy=0;entryX=0;entryY=0.5;entryDx=0;entryDy=0;" edge="1" parent="1" source="pazXSuaWY3IOzkwAcKcH-24" target="pazXSuaWY3IOzkwAcKcH-192">
          <mxGeometry relative="1" as="geometry" />
        </mxCell>
        <mxCell id="pazXSuaWY3IOzkwAcKcH-24" value="iv_p_in&amp;nbsp; [42]" style="text;html=1;align=center;verticalAlign=middle;whiteSpace=wrap;rounded=0;" vertex="1" parent="1">
          <mxGeometry x="670" y="-30" width="60" height="30" as="geometry" />
        </mxCell>
        <mxCell id="pazXSuaWY3IOzkwAcKcH-25" style="edgeStyle=orthogonalEdgeStyle;rounded=0;orthogonalLoop=1;jettySize=auto;html=1;exitX=0.5;exitY=1;exitDx=0;exitDy=0;entryX=0;entryY=0.5;entryDx=0;entryDy=0;" edge="1" parent="1" source="pazXSuaWY3IOzkwAcKcH-26" target="pazXSuaWY3IOzkwAcKcH-194">
          <mxGeometry relative="1" as="geometry" />
        </mxCell>
        <mxCell id="pazXSuaWY3IOzkwAcKcH-26" value="iv_p_in&amp;nbsp; [41]" style="text;html=1;align=center;verticalAlign=middle;whiteSpace=wrap;rounded=0;" vertex="1" parent="1">
          <mxGeometry x="730" y="-30" width="60" height="30" as="geometry" />
        </mxCell>
        <mxCell id="pazXSuaWY3IOzkwAcKcH-27" style="edgeStyle=orthogonalEdgeStyle;rounded=0;orthogonalLoop=1;jettySize=auto;html=1;exitX=0.5;exitY=1;exitDx=0;exitDy=0;entryX=0;entryY=0.5;entryDx=0;entryDy=0;" edge="1" parent="1" source="pazXSuaWY3IOzkwAcKcH-28" target="pazXSuaWY3IOzkwAcKcH-196">
          <mxGeometry relative="1" as="geometry" />
        </mxCell>
        <mxCell id="pazXSuaWY3IOzkwAcKcH-28" value="iv_p_in&amp;nbsp; [40]" style="text;html=1;align=center;verticalAlign=middle;whiteSpace=wrap;rounded=0;" vertex="1" parent="1">
          <mxGeometry x="790" y="-30" width="60" height="30" as="geometry" />
        </mxCell>
        <mxCell id="pazXSuaWY3IOzkwAcKcH-29" style="edgeStyle=orthogonalEdgeStyle;rounded=0;orthogonalLoop=1;jettySize=auto;html=1;exitX=0.5;exitY=1;exitDx=0;exitDy=0;entryX=0;entryY=0.5;entryDx=0;entryDy=0;" edge="1" parent="1" source="pazXSuaWY3IOzkwAcKcH-30" target="pazXSuaWY3IOzkwAcKcH-212">
          <mxGeometry relative="1" as="geometry" />
        </mxCell>
        <mxCell id="pazXSuaWY3IOzkwAcKcH-30" value="iv_p_in&amp;nbsp; [39]" style="text;html=1;align=center;verticalAlign=middle;whiteSpace=wrap;rounded=0;" vertex="1" parent="1">
          <mxGeometry x="850" y="-30" width="60" height="30" as="geometry" />
        </mxCell>
        <mxCell id="pazXSuaWY3IOzkwAcKcH-31" style="edgeStyle=orthogonalEdgeStyle;rounded=0;orthogonalLoop=1;jettySize=auto;html=1;exitX=0.5;exitY=1;exitDx=0;exitDy=0;entryX=0;entryY=0.5;entryDx=0;entryDy=0;" edge="1" parent="1" source="pazXSuaWY3IOzkwAcKcH-32" target="pazXSuaWY3IOzkwAcKcH-210">
          <mxGeometry relative="1" as="geometry" />
        </mxCell>
        <mxCell id="pazXSuaWY3IOzkwAcKcH-32" value="iv_p_in&amp;nbsp; [38]" style="text;html=1;align=center;verticalAlign=middle;whiteSpace=wrap;rounded=0;" vertex="1" parent="1">
          <mxGeometry x="910" y="-30" width="60" height="30" as="geometry" />
        </mxCell>
        <mxCell id="pazXSuaWY3IOzkwAcKcH-33" style="edgeStyle=orthogonalEdgeStyle;rounded=0;orthogonalLoop=1;jettySize=auto;html=1;exitX=0.5;exitY=1;exitDx=0;exitDy=0;entryX=0;entryY=0.5;entryDx=0;entryDy=0;" edge="1" parent="1" source="pazXSuaWY3IOzkwAcKcH-34" target="pazXSuaWY3IOzkwAcKcH-208">
          <mxGeometry relative="1" as="geometry" />
        </mxCell>
        <mxCell id="pazXSuaWY3IOzkwAcKcH-34" value="iv_p_in&amp;nbsp; [37]" style="text;html=1;align=center;verticalAlign=middle;whiteSpace=wrap;rounded=0;" vertex="1" parent="1">
          <mxGeometry x="970" y="-30" width="60" height="30" as="geometry" />
        </mxCell>
        <mxCell id="pazXSuaWY3IOzkwAcKcH-35" style="edgeStyle=orthogonalEdgeStyle;rounded=0;orthogonalLoop=1;jettySize=auto;html=1;exitX=0.5;exitY=1;exitDx=0;exitDy=0;entryX=0;entryY=0.5;entryDx=0;entryDy=0;" edge="1" parent="1" source="pazXSuaWY3IOzkwAcKcH-36" target="pazXSuaWY3IOzkwAcKcH-234">
          <mxGeometry relative="1" as="geometry" />
        </mxCell>
        <mxCell id="pazXSuaWY3IOzkwAcKcH-36" value="iv_p_in&amp;nbsp; [54]" style="text;html=1;align=center;verticalAlign=middle;whiteSpace=wrap;rounded=0;" vertex="1" parent="1">
          <mxGeometry x="-50" y="-30" width="60" height="30" as="geometry" />
        </mxCell>
        <mxCell id="pazXSuaWY3IOzkwAcKcH-37" style="edgeStyle=orthogonalEdgeStyle;rounded=0;orthogonalLoop=1;jettySize=auto;html=1;exitX=0.5;exitY=1;exitDx=0;exitDy=0;entryX=0;entryY=0.5;entryDx=0;entryDy=0;" edge="1" parent="1" source="pazXSuaWY3IOzkwAcKcH-38" target="pazXSuaWY3IOzkwAcKcH-236">
          <mxGeometry relative="1" as="geometry" />
        </mxCell>
        <mxCell id="pazXSuaWY3IOzkwAcKcH-38" value="iv_p_in&amp;nbsp; [55]" style="text;html=1;align=center;verticalAlign=middle;whiteSpace=wrap;rounded=0;" vertex="1" parent="1">
          <mxGeometry x="-110" y="-30" width="60" height="30" as="geometry" />
        </mxCell>
        <mxCell id="pazXSuaWY3IOzkwAcKcH-39" style="edgeStyle=orthogonalEdgeStyle;rounded=0;orthogonalLoop=1;jettySize=auto;html=1;exitX=0.5;exitY=1;exitDx=0;exitDy=0;entryX=0;entryY=0.5;entryDx=0;entryDy=0;" edge="1" parent="1" source="pazXSuaWY3IOzkwAcKcH-40" target="pazXSuaWY3IOzkwAcKcH-238">
          <mxGeometry relative="1" as="geometry" />
        </mxCell>
        <mxCell id="pazXSuaWY3IOzkwAcKcH-40" value="iv_p_in&amp;nbsp; [56]" style="text;html=1;align=center;verticalAlign=middle;whiteSpace=wrap;rounded=0;" vertex="1" parent="1">
          <mxGeometry x="-170" y="-30" width="60" height="30" as="geometry" />
        </mxCell>
        <mxCell id="pazXSuaWY3IOzkwAcKcH-41" style="edgeStyle=orthogonalEdgeStyle;rounded=0;orthogonalLoop=1;jettySize=auto;html=1;exitX=0.5;exitY=1;exitDx=0;exitDy=0;entryX=0;entryY=0.5;entryDx=0;entryDy=0;" edge="1" parent="1" source="pazXSuaWY3IOzkwAcKcH-42" target="pazXSuaWY3IOzkwAcKcH-240">
          <mxGeometry relative="1" as="geometry" />
        </mxCell>
        <mxCell id="pazXSuaWY3IOzkwAcKcH-42" value="iv_p_in&amp;nbsp; [57]" style="text;html=1;align=center;verticalAlign=middle;whiteSpace=wrap;rounded=0;" vertex="1" parent="1">
          <mxGeometry x="-230" y="-30" width="60" height="30" as="geometry" />
        </mxCell>
        <mxCell id="pazXSuaWY3IOzkwAcKcH-43" style="edgeStyle=orthogonalEdgeStyle;rounded=0;orthogonalLoop=1;jettySize=auto;html=1;exitX=0.5;exitY=1;exitDx=0;exitDy=0;entryX=0;entryY=0.5;entryDx=0;entryDy=0;" edge="1" parent="1" source="pazXSuaWY3IOzkwAcKcH-44" target="pazXSuaWY3IOzkwAcKcH-242">
          <mxGeometry relative="1" as="geometry" />
        </mxCell>
        <mxCell id="pazXSuaWY3IOzkwAcKcH-44" value="iv_p_in&amp;nbsp; [58]" style="text;html=1;align=center;verticalAlign=middle;whiteSpace=wrap;rounded=0;" vertex="1" parent="1">
          <mxGeometry x="-290" y="-30" width="60" height="30" as="geometry" />
        </mxCell>
        <mxCell id="pazXSuaWY3IOzkwAcKcH-45" style="edgeStyle=orthogonalEdgeStyle;rounded=0;orthogonalLoop=1;jettySize=auto;html=1;exitX=0.5;exitY=1;exitDx=0;exitDy=0;entryX=0;entryY=0.5;entryDx=0;entryDy=0;" edge="1" parent="1" source="pazXSuaWY3IOzkwAcKcH-46" target="pazXSuaWY3IOzkwAcKcH-206">
          <mxGeometry relative="1" as="geometry" />
        </mxCell>
        <mxCell id="pazXSuaWY3IOzkwAcKcH-46" value="iv_p_in&amp;nbsp; [36]" style="text;html=1;align=center;verticalAlign=middle;whiteSpace=wrap;rounded=0;" vertex="1" parent="1">
          <mxGeometry x="1030" y="-30" width="60" height="30" as="geometry" />
        </mxCell>
        <mxCell id="pazXSuaWY3IOzkwAcKcH-47" style="edgeStyle=orthogonalEdgeStyle;rounded=0;orthogonalLoop=1;jettySize=auto;html=1;exitX=0.5;exitY=1;exitDx=0;exitDy=0;entryX=0;entryY=0.5;entryDx=0;entryDy=0;" edge="1" parent="1" source="pazXSuaWY3IOzkwAcKcH-48" target="pazXSuaWY3IOzkwAcKcH-246">
          <mxGeometry relative="1" as="geometry" />
        </mxCell>
        <mxCell id="pazXSuaWY3IOzkwAcKcH-48" value="iv_p_in&amp;nbsp; [60]" style="text;html=1;align=center;verticalAlign=middle;whiteSpace=wrap;rounded=0;" vertex="1" parent="1">
          <mxGeometry x="-410" y="-30" width="60" height="30" as="geometry" />
        </mxCell>
        <mxCell id="pazXSuaWY3IOzkwAcKcH-49" style="edgeStyle=orthogonalEdgeStyle;rounded=0;orthogonalLoop=1;jettySize=auto;html=1;exitX=0.5;exitY=1;exitDx=0;exitDy=0;entryX=0;entryY=0.5;entryDx=0;entryDy=0;" edge="1" parent="1" source="pazXSuaWY3IOzkwAcKcH-50" target="pazXSuaWY3IOzkwAcKcH-248">
          <mxGeometry relative="1" as="geometry" />
        </mxCell>
        <mxCell id="pazXSuaWY3IOzkwAcKcH-50" value="iv_p_in&amp;nbsp;&lt;div&gt;[61]&lt;/div&gt;" style="text;html=1;align=center;verticalAlign=middle;whiteSpace=wrap;rounded=0;" vertex="1" parent="1">
          <mxGeometry x="-470" y="-30" width="60" height="30" as="geometry" />
        </mxCell>
        <mxCell id="pazXSuaWY3IOzkwAcKcH-51" style="edgeStyle=orthogonalEdgeStyle;rounded=0;orthogonalLoop=1;jettySize=auto;html=1;exitX=0.5;exitY=1;exitDx=0;exitDy=0;entryX=0;entryY=0.5;entryDx=0;entryDy=0;" edge="1" parent="1" source="pazXSuaWY3IOzkwAcKcH-52" target="pazXSuaWY3IOzkwAcKcH-244">
          <mxGeometry relative="1" as="geometry" />
        </mxCell>
        <mxCell id="pazXSuaWY3IOzkwAcKcH-52" value="iv_p_in&amp;nbsp; [59]" style="text;html=1;align=center;verticalAlign=middle;whiteSpace=wrap;rounded=0;" vertex="1" parent="1">
          <mxGeometry x="-350" y="-30" width="60" height="30" as="geometry" />
        </mxCell>
        <mxCell id="pazXSuaWY3IOzkwAcKcH-53" style="edgeStyle=orthogonalEdgeStyle;rounded=0;orthogonalLoop=1;jettySize=auto;html=1;exitX=0.5;exitY=1;exitDx=0;exitDy=0;entryX=0;entryY=0.5;entryDx=0;entryDy=0;" edge="1" parent="1" source="pazXSuaWY3IOzkwAcKcH-54" target="pazXSuaWY3IOzkwAcKcH-186">
          <mxGeometry relative="1" as="geometry" />
        </mxCell>
        <mxCell id="pazXSuaWY3IOzkwAcKcH-54" value="iv_p_in [63]" style="text;html=1;align=center;verticalAlign=middle;whiteSpace=wrap;rounded=0;" vertex="1" parent="1">
          <mxGeometry x="-590" y="-30" width="60" height="30" as="geometry" />
        </mxCell>
        <mxCell id="pazXSuaWY3IOzkwAcKcH-55" style="edgeStyle=orthogonalEdgeStyle;rounded=0;orthogonalLoop=1;jettySize=auto;html=1;exitX=0.5;exitY=1;exitDx=0;exitDy=0;entryX=0;entryY=0.5;entryDx=0;entryDy=0;" edge="1" parent="1" source="pazXSuaWY3IOzkwAcKcH-56" target="pazXSuaWY3IOzkwAcKcH-204">
          <mxGeometry relative="1" as="geometry" />
        </mxCell>
        <mxCell id="pazXSuaWY3IOzkwAcKcH-56" value="iv_p_in&amp;nbsp; [35]" style="text;html=1;align=center;verticalAlign=middle;whiteSpace=wrap;rounded=0;" vertex="1" parent="1">
          <mxGeometry x="1090" y="-30" width="60" height="30" as="geometry" />
        </mxCell>
        <mxCell id="pazXSuaWY3IOzkwAcKcH-57" style="edgeStyle=orthogonalEdgeStyle;rounded=0;orthogonalLoop=1;jettySize=auto;html=1;exitX=0.5;exitY=1;exitDx=0;exitDy=0;entryX=0;entryY=0.5;entryDx=0;entryDy=0;" edge="1" parent="1" source="pazXSuaWY3IOzkwAcKcH-58" target="pazXSuaWY3IOzkwAcKcH-188">
          <mxGeometry relative="1" as="geometry" />
        </mxCell>
        <mxCell id="pazXSuaWY3IOzkwAcKcH-58" value="iv_p_in [62]" style="text;html=1;align=center;verticalAlign=middle;whiteSpace=wrap;rounded=0;" vertex="1" parent="1">
          <mxGeometry x="-530" y="-30" width="60" height="30" as="geometry" />
        </mxCell>
        <mxCell id="pazXSuaWY3IOzkwAcKcH-59" style="edgeStyle=orthogonalEdgeStyle;rounded=0;orthogonalLoop=1;jettySize=auto;html=1;exitX=0.5;exitY=1;exitDx=0;exitDy=0;entryX=0;entryY=0.5;entryDx=0;entryDy=0;" edge="1" parent="1" source="pazXSuaWY3IOzkwAcKcH-60" target="pazXSuaWY3IOzkwAcKcH-200">
          <mxGeometry relative="1" as="geometry" />
        </mxCell>
        <mxCell id="pazXSuaWY3IOzkwAcKcH-60" value="iv_p_in&amp;nbsp; [33]" style="text;html=1;align=center;verticalAlign=middle;whiteSpace=wrap;rounded=0;" vertex="1" parent="1">
          <mxGeometry x="1210" y="-30" width="60" height="30" as="geometry" />
        </mxCell>
        <mxCell id="pazXSuaWY3IOzkwAcKcH-61" style="edgeStyle=orthogonalEdgeStyle;rounded=0;orthogonalLoop=1;jettySize=auto;html=1;exitX=0.5;exitY=1;exitDx=0;exitDy=0;entryX=0;entryY=0.5;entryDx=0;entryDy=0;" edge="1" parent="1" source="pazXSuaWY3IOzkwAcKcH-62" target="pazXSuaWY3IOzkwAcKcH-202">
          <mxGeometry relative="1" as="geometry" />
        </mxCell>
        <mxCell id="pazXSuaWY3IOzkwAcKcH-62" value="iv_p_in&amp;nbsp; [34]" style="text;html=1;align=center;verticalAlign=middle;whiteSpace=wrap;rounded=0;" vertex="1" parent="1">
          <mxGeometry x="1150" y="-30" width="60" height="30" as="geometry" />
        </mxCell>
        <mxCell id="pazXSuaWY3IOzkwAcKcH-63" style="edgeStyle=orthogonalEdgeStyle;rounded=0;orthogonalLoop=1;jettySize=auto;html=1;exitX=0.5;exitY=1;exitDx=0;exitDy=0;entryX=0;entryY=0.5;entryDx=0;entryDy=0;" edge="1" parent="1" source="pazXSuaWY3IOzkwAcKcH-64" target="pazXSuaWY3IOzkwAcKcH-198">
          <mxGeometry relative="1" as="geometry" />
        </mxCell>
        <mxCell id="pazXSuaWY3IOzkwAcKcH-64" value="iv_p_in&amp;nbsp; [32]" style="text;html=1;align=center;verticalAlign=middle;whiteSpace=wrap;rounded=0;" vertex="1" parent="1">
          <mxGeometry x="1270" y="-30" width="60" height="30" as="geometry" />
        </mxCell>
        <mxCell id="pazXSuaWY3IOzkwAcKcH-65" style="edgeStyle=orthogonalEdgeStyle;rounded=0;orthogonalLoop=1;jettySize=auto;html=1;exitX=0.5;exitY=0;exitDx=0;exitDy=0;entryX=0;entryY=0.5;entryDx=0;entryDy=0;" edge="1" parent="1" source="pazXSuaWY3IOzkwAcKcH-66" target="pazXSuaWY3IOzkwAcKcH-296">
          <mxGeometry relative="1" as="geometry" />
        </mxCell>
        <mxCell id="pazXSuaWY3IOzkwAcKcH-66" value="iv_p_in&amp;nbsp; [21]" style="text;html=1;align=center;verticalAlign=middle;whiteSpace=wrap;rounded=0;" vertex="1" parent="1">
          <mxGeometry x="10" y="760" width="60" height="30" as="geometry" />
        </mxCell>
        <mxCell id="pazXSuaWY3IOzkwAcKcH-67" style="edgeStyle=orthogonalEdgeStyle;rounded=0;orthogonalLoop=1;jettySize=auto;html=1;exitX=0.5;exitY=0;exitDx=0;exitDy=0;entryX=0;entryY=0.5;entryDx=0;entryDy=0;" edge="1" parent="1" source="pazXSuaWY3IOzkwAcKcH-68" target="pazXSuaWY3IOzkwAcKcH-294">
          <mxGeometry relative="1" as="geometry" />
        </mxCell>
        <mxCell id="pazXSuaWY3IOzkwAcKcH-68" value="iv_p_in&amp;nbsp; [20]" style="text;html=1;align=center;verticalAlign=middle;whiteSpace=wrap;rounded=0;" vertex="1" parent="1">
          <mxGeometry x="70" y="760" width="60" height="30" as="geometry" />
        </mxCell>
        <mxCell id="pazXSuaWY3IOzkwAcKcH-69" style="edgeStyle=orthogonalEdgeStyle;rounded=0;orthogonalLoop=1;jettySize=auto;html=1;exitX=0.5;exitY=0;exitDx=0;exitDy=0;entryX=0;entryY=0.5;entryDx=0;entryDy=0;" edge="1" parent="1" source="pazXSuaWY3IOzkwAcKcH-70" target="pazXSuaWY3IOzkwAcKcH-290">
          <mxGeometry relative="1" as="geometry" />
        </mxCell>
        <mxCell id="pazXSuaWY3IOzkwAcKcH-70" value="iv_p_in&amp;nbsp; [17]" style="text;html=1;align=center;verticalAlign=middle;whiteSpace=wrap;rounded=0;" vertex="1" parent="1">
          <mxGeometry x="250" y="760" width="60" height="30" as="geometry" />
        </mxCell>
        <mxCell id="pazXSuaWY3IOzkwAcKcH-71" style="edgeStyle=orthogonalEdgeStyle;rounded=0;orthogonalLoop=1;jettySize=auto;html=1;exitX=0.5;exitY=0;exitDx=0;exitDy=0;entryX=0;entryY=0.5;entryDx=0;entryDy=0;" edge="1" parent="1" source="pazXSuaWY3IOzkwAcKcH-72" target="pazXSuaWY3IOzkwAcKcH-284">
          <mxGeometry relative="1" as="geometry" />
        </mxCell>
        <mxCell id="pazXSuaWY3IOzkwAcKcH-72" value="iv_p_in&amp;nbsp; [18]" style="text;html=1;align=center;verticalAlign=middle;whiteSpace=wrap;rounded=0;" vertex="1" parent="1">
          <mxGeometry x="190" y="760" width="60" height="30" as="geometry" />
        </mxCell>
        <mxCell id="pazXSuaWY3IOzkwAcKcH-73" style="edgeStyle=orthogonalEdgeStyle;rounded=0;orthogonalLoop=1;jettySize=auto;html=1;exitX=0.5;exitY=0;exitDx=0;exitDy=0;entryX=0;entryY=0.5;entryDx=0;entryDy=0;" edge="1" parent="1" source="pazXSuaWY3IOzkwAcKcH-74" target="pazXSuaWY3IOzkwAcKcH-292">
          <mxGeometry relative="1" as="geometry" />
        </mxCell>
        <mxCell id="pazXSuaWY3IOzkwAcKcH-74" value="iv_p_in&amp;nbsp; [19]" style="text;html=1;align=center;verticalAlign=middle;whiteSpace=wrap;rounded=0;" vertex="1" parent="1">
          <mxGeometry x="130" y="760" width="60" height="30" as="geometry" />
        </mxCell>
        <mxCell id="pazXSuaWY3IOzkwAcKcH-75" style="edgeStyle=orthogonalEdgeStyle;rounded=0;orthogonalLoop=1;jettySize=auto;html=1;exitX=0.5;exitY=0;exitDx=0;exitDy=0;entryX=0;entryY=0.5;entryDx=0;entryDy=0;" edge="1" parent="1" source="pazXSuaWY3IOzkwAcKcH-76" target="pazXSuaWY3IOzkwAcKcH-286">
          <mxGeometry relative="1" as="geometry" />
        </mxCell>
        <mxCell id="pazXSuaWY3IOzkwAcKcH-76" value="iv_p_in&amp;nbsp; [15]" style="text;html=1;align=center;verticalAlign=middle;whiteSpace=wrap;rounded=0;" vertex="1" parent="1">
          <mxGeometry x="370" y="760" width="60" height="30" as="geometry" />
        </mxCell>
        <mxCell id="pazXSuaWY3IOzkwAcKcH-77" style="edgeStyle=orthogonalEdgeStyle;rounded=0;orthogonalLoop=1;jettySize=auto;html=1;exitX=0.5;exitY=0;exitDx=0;exitDy=0;entryX=0;entryY=0.5;entryDx=0;entryDy=0;" edge="1" parent="1" source="pazXSuaWY3IOzkwAcKcH-78" target="pazXSuaWY3IOzkwAcKcH-288">
          <mxGeometry relative="1" as="geometry" />
        </mxCell>
        <mxCell id="pazXSuaWY3IOzkwAcKcH-78" value="iv_p_in&amp;nbsp; [16]" style="text;html=1;align=center;verticalAlign=middle;whiteSpace=wrap;rounded=0;" vertex="1" parent="1">
          <mxGeometry x="310" y="760" width="60" height="30" as="geometry" />
        </mxCell>
        <mxCell id="pazXSuaWY3IOzkwAcKcH-79" style="edgeStyle=orthogonalEdgeStyle;rounded=0;orthogonalLoop=1;jettySize=auto;html=1;exitX=0.5;exitY=0;exitDx=0;exitDy=0;entryX=0;entryY=0.5;entryDx=0;entryDy=0;" edge="1" parent="1" source="pazXSuaWY3IOzkwAcKcH-80" target="pazXSuaWY3IOzkwAcKcH-282">
          <mxGeometry relative="1" as="geometry" />
        </mxCell>
        <mxCell id="pazXSuaWY3IOzkwAcKcH-80" value="iv_p_in&amp;nbsp; [14]" style="text;html=1;align=center;verticalAlign=middle;whiteSpace=wrap;rounded=0;" vertex="1" parent="1">
          <mxGeometry x="430" y="760" width="60" height="30" as="geometry" />
        </mxCell>
        <mxCell id="pazXSuaWY3IOzkwAcKcH-81" style="edgeStyle=orthogonalEdgeStyle;rounded=0;orthogonalLoop=1;jettySize=auto;html=1;exitX=0.5;exitY=0;exitDx=0;exitDy=0;entryX=0;entryY=0.5;entryDx=0;entryDy=0;" edge="1" parent="1" source="pazXSuaWY3IOzkwAcKcH-82" target="pazXSuaWY3IOzkwAcKcH-278">
          <mxGeometry relative="1" as="geometry" />
        </mxCell>
        <mxCell id="pazXSuaWY3IOzkwAcKcH-82" value="iv_p_in&amp;nbsp; [12]" style="text;html=1;align=center;verticalAlign=middle;whiteSpace=wrap;rounded=0;" vertex="1" parent="1">
          <mxGeometry x="550" y="760" width="60" height="30" as="geometry" />
        </mxCell>
        <mxCell id="pazXSuaWY3IOzkwAcKcH-83" style="edgeStyle=orthogonalEdgeStyle;rounded=0;orthogonalLoop=1;jettySize=auto;html=1;exitX=0.5;exitY=0;exitDx=0;exitDy=0;entryX=0;entryY=0.5;entryDx=0;entryDy=0;" edge="1" parent="1" source="pazXSuaWY3IOzkwAcKcH-84" target="pazXSuaWY3IOzkwAcKcH-280">
          <mxGeometry relative="1" as="geometry" />
        </mxCell>
        <mxCell id="pazXSuaWY3IOzkwAcKcH-84" value="iv_p_in&amp;nbsp; [13]" style="text;html=1;align=center;verticalAlign=middle;whiteSpace=wrap;rounded=0;" vertex="1" parent="1">
          <mxGeometry x="490" y="760" width="60" height="30" as="geometry" />
        </mxCell>
        <mxCell id="pazXSuaWY3IOzkwAcKcH-85" style="edgeStyle=orthogonalEdgeStyle;rounded=0;orthogonalLoop=1;jettySize=auto;html=1;exitX=0.5;exitY=0;exitDx=0;exitDy=0;entryX=0;entryY=0.5;entryDx=0;entryDy=0;" edge="1" parent="1" source="pazXSuaWY3IOzkwAcKcH-86" target="pazXSuaWY3IOzkwAcKcH-254">
          <mxGeometry relative="1" as="geometry" />
        </mxCell>
        <mxCell id="pazXSuaWY3IOzkwAcKcH-86" value="iv_p_in&amp;nbsp; [11]" style="text;html=1;align=center;verticalAlign=middle;whiteSpace=wrap;rounded=0;" vertex="1" parent="1">
          <mxGeometry x="610" y="760" width="60" height="30" as="geometry" />
        </mxCell>
        <mxCell id="pazXSuaWY3IOzkwAcKcH-87" style="edgeStyle=orthogonalEdgeStyle;rounded=0;orthogonalLoop=1;jettySize=auto;html=1;exitX=0.5;exitY=0;exitDx=0;exitDy=0;entryX=0;entryY=0.5;entryDx=0;entryDy=0;" edge="1" parent="1" source="pazXSuaWY3IOzkwAcKcH-88" target="pazXSuaWY3IOzkwAcKcH-256">
          <mxGeometry relative="1" as="geometry" />
        </mxCell>
        <mxCell id="pazXSuaWY3IOzkwAcKcH-88" value="iv_p_in&amp;nbsp; [10]" style="text;html=1;align=center;verticalAlign=middle;whiteSpace=wrap;rounded=0;" vertex="1" parent="1">
          <mxGeometry x="670" y="760" width="60" height="30" as="geometry" />
        </mxCell>
        <mxCell id="pazXSuaWY3IOzkwAcKcH-89" style="edgeStyle=orthogonalEdgeStyle;rounded=0;orthogonalLoop=1;jettySize=auto;html=1;exitX=0.5;exitY=0;exitDx=0;exitDy=0;entryX=0;entryY=0.5;entryDx=0;entryDy=0;" edge="1" parent="1" source="pazXSuaWY3IOzkwAcKcH-90" target="pazXSuaWY3IOzkwAcKcH-258">
          <mxGeometry relative="1" as="geometry" />
        </mxCell>
        <mxCell id="pazXSuaWY3IOzkwAcKcH-90" value="iv_p_in&amp;nbsp; [9]" style="text;html=1;align=center;verticalAlign=middle;whiteSpace=wrap;rounded=0;" vertex="1" parent="1">
          <mxGeometry x="730" y="760" width="60" height="30" as="geometry" />
        </mxCell>
        <mxCell id="pazXSuaWY3IOzkwAcKcH-91" style="edgeStyle=orthogonalEdgeStyle;rounded=0;orthogonalLoop=1;jettySize=auto;html=1;exitX=0.5;exitY=0;exitDx=0;exitDy=0;entryX=0;entryY=0.5;entryDx=0;entryDy=0;" edge="1" parent="1" source="pazXSuaWY3IOzkwAcKcH-92" target="pazXSuaWY3IOzkwAcKcH-260">
          <mxGeometry relative="1" as="geometry" />
        </mxCell>
        <mxCell id="pazXSuaWY3IOzkwAcKcH-92" value="iv_p_in&amp;nbsp; [8]" style="text;html=1;align=center;verticalAlign=middle;whiteSpace=wrap;rounded=0;" vertex="1" parent="1">
          <mxGeometry x="790" y="760" width="60" height="30" as="geometry" />
        </mxCell>
        <mxCell id="pazXSuaWY3IOzkwAcKcH-93" style="edgeStyle=orthogonalEdgeStyle;rounded=0;orthogonalLoop=1;jettySize=auto;html=1;exitX=0.5;exitY=0;exitDx=0;exitDy=0;entryX=0;entryY=0.5;entryDx=0;entryDy=0;" edge="1" parent="1" source="pazXSuaWY3IOzkwAcKcH-94" target="pazXSuaWY3IOzkwAcKcH-276">
          <mxGeometry relative="1" as="geometry" />
        </mxCell>
        <mxCell id="pazXSuaWY3IOzkwAcKcH-94" value="iv_p_in&amp;nbsp; [7]" style="text;html=1;align=center;verticalAlign=middle;whiteSpace=wrap;rounded=0;" vertex="1" parent="1">
          <mxGeometry x="850" y="760" width="60" height="30" as="geometry" />
        </mxCell>
        <mxCell id="pazXSuaWY3IOzkwAcKcH-95" style="edgeStyle=orthogonalEdgeStyle;rounded=0;orthogonalLoop=1;jettySize=auto;html=1;exitX=0.5;exitY=0;exitDx=0;exitDy=0;entryX=0;entryY=0.5;entryDx=0;entryDy=0;" edge="1" parent="1" source="pazXSuaWY3IOzkwAcKcH-96" target="pazXSuaWY3IOzkwAcKcH-274">
          <mxGeometry relative="1" as="geometry" />
        </mxCell>
        <mxCell id="pazXSuaWY3IOzkwAcKcH-96" value="iv_p_in&amp;nbsp; [6]" style="text;html=1;align=center;verticalAlign=middle;whiteSpace=wrap;rounded=0;" vertex="1" parent="1">
          <mxGeometry x="910" y="760" width="60" height="30" as="geometry" />
        </mxCell>
        <mxCell id="pazXSuaWY3IOzkwAcKcH-97" style="edgeStyle=orthogonalEdgeStyle;rounded=0;orthogonalLoop=1;jettySize=auto;html=1;exitX=0.5;exitY=0;exitDx=0;exitDy=0;entryX=0;entryY=0.5;entryDx=0;entryDy=0;" edge="1" parent="1" source="pazXSuaWY3IOzkwAcKcH-98" target="pazXSuaWY3IOzkwAcKcH-272">
          <mxGeometry relative="1" as="geometry" />
        </mxCell>
        <mxCell id="pazXSuaWY3IOzkwAcKcH-98" value="iv_p_in&amp;nbsp; [5]" style="text;html=1;align=center;verticalAlign=middle;whiteSpace=wrap;rounded=0;" vertex="1" parent="1">
          <mxGeometry x="970" y="760" width="60" height="30" as="geometry" />
        </mxCell>
        <mxCell id="pazXSuaWY3IOzkwAcKcH-99" style="edgeStyle=orthogonalEdgeStyle;rounded=0;orthogonalLoop=1;jettySize=auto;html=1;exitX=0.5;exitY=0;exitDx=0;exitDy=0;entryX=0;entryY=0.5;entryDx=0;entryDy=0;" edge="1" parent="1" source="pazXSuaWY3IOzkwAcKcH-100" target="pazXSuaWY3IOzkwAcKcH-298">
          <mxGeometry relative="1" as="geometry" />
        </mxCell>
        <mxCell id="pazXSuaWY3IOzkwAcKcH-100" value="iv_p_in&amp;nbsp; [22]" style="text;html=1;align=center;verticalAlign=middle;whiteSpace=wrap;rounded=0;" vertex="1" parent="1">
          <mxGeometry x="-50" y="760" width="60" height="30" as="geometry" />
        </mxCell>
        <mxCell id="pazXSuaWY3IOzkwAcKcH-101" style="edgeStyle=orthogonalEdgeStyle;rounded=0;orthogonalLoop=1;jettySize=auto;html=1;exitX=0.5;exitY=0;exitDx=0;exitDy=0;entryX=0;entryY=0.5;entryDx=0;entryDy=0;" edge="1" parent="1" source="pazXSuaWY3IOzkwAcKcH-102" target="pazXSuaWY3IOzkwAcKcH-300">
          <mxGeometry relative="1" as="geometry" />
        </mxCell>
        <mxCell id="pazXSuaWY3IOzkwAcKcH-102" value="iv_p_in&amp;nbsp; [23]" style="text;html=1;align=center;verticalAlign=middle;whiteSpace=wrap;rounded=0;" vertex="1" parent="1">
          <mxGeometry x="-110" y="760" width="60" height="30" as="geometry" />
        </mxCell>
        <mxCell id="pazXSuaWY3IOzkwAcKcH-103" style="edgeStyle=orthogonalEdgeStyle;rounded=0;orthogonalLoop=1;jettySize=auto;html=1;exitX=0.5;exitY=0;exitDx=0;exitDy=0;entryX=0;entryY=0.5;entryDx=0;entryDy=0;" edge="1" parent="1" source="pazXSuaWY3IOzkwAcKcH-104" target="pazXSuaWY3IOzkwAcKcH-302">
          <mxGeometry relative="1" as="geometry" />
        </mxCell>
        <mxCell id="pazXSuaWY3IOzkwAcKcH-104" value="iv_p_in&amp;nbsp; [24]" style="text;html=1;align=center;verticalAlign=middle;whiteSpace=wrap;rounded=0;" vertex="1" parent="1">
          <mxGeometry x="-170" y="760" width="60" height="30" as="geometry" />
        </mxCell>
        <mxCell id="pazXSuaWY3IOzkwAcKcH-105" style="edgeStyle=orthogonalEdgeStyle;rounded=0;orthogonalLoop=1;jettySize=auto;html=1;exitX=0.5;exitY=0;exitDx=0;exitDy=0;entryX=0;entryY=0.5;entryDx=0;entryDy=0;" edge="1" parent="1" source="pazXSuaWY3IOzkwAcKcH-106" target="pazXSuaWY3IOzkwAcKcH-304">
          <mxGeometry relative="1" as="geometry" />
        </mxCell>
        <mxCell id="pazXSuaWY3IOzkwAcKcH-106" value="iv_p_in&amp;nbsp; [25]" style="text;html=1;align=center;verticalAlign=middle;whiteSpace=wrap;rounded=0;" vertex="1" parent="1">
          <mxGeometry x="-230" y="760" width="60" height="30" as="geometry" />
        </mxCell>
        <mxCell id="pazXSuaWY3IOzkwAcKcH-107" style="edgeStyle=orthogonalEdgeStyle;rounded=0;orthogonalLoop=1;jettySize=auto;html=1;exitX=0.5;exitY=0;exitDx=0;exitDy=0;entryX=0;entryY=0.5;entryDx=0;entryDy=0;" edge="1" parent="1" source="pazXSuaWY3IOzkwAcKcH-108" target="pazXSuaWY3IOzkwAcKcH-306">
          <mxGeometry relative="1" as="geometry" />
        </mxCell>
        <mxCell id="pazXSuaWY3IOzkwAcKcH-108" value="iv_p_in&amp;nbsp; [26]" style="text;html=1;align=center;verticalAlign=middle;whiteSpace=wrap;rounded=0;" vertex="1" parent="1">
          <mxGeometry x="-290" y="760" width="60" height="30" as="geometry" />
        </mxCell>
        <mxCell id="pazXSuaWY3IOzkwAcKcH-109" style="edgeStyle=orthogonalEdgeStyle;rounded=0;orthogonalLoop=1;jettySize=auto;html=1;exitX=0.5;exitY=0;exitDx=0;exitDy=0;entryX=0;entryY=0.5;entryDx=0;entryDy=0;" edge="1" parent="1" source="pazXSuaWY3IOzkwAcKcH-110" target="pazXSuaWY3IOzkwAcKcH-270">
          <mxGeometry relative="1" as="geometry" />
        </mxCell>
        <mxCell id="pazXSuaWY3IOzkwAcKcH-110" value="iv_p_in&amp;nbsp; [4]" style="text;html=1;align=center;verticalAlign=middle;whiteSpace=wrap;rounded=0;" vertex="1" parent="1">
          <mxGeometry x="1030" y="760" width="60" height="30" as="geometry" />
        </mxCell>
        <mxCell id="pazXSuaWY3IOzkwAcKcH-111" style="edgeStyle=orthogonalEdgeStyle;rounded=0;orthogonalLoop=1;jettySize=auto;html=1;exitX=0.5;exitY=0;exitDx=0;exitDy=0;entryX=0;entryY=0.5;entryDx=0;entryDy=0;" edge="1" parent="1" source="pazXSuaWY3IOzkwAcKcH-112" target="pazXSuaWY3IOzkwAcKcH-310">
          <mxGeometry relative="1" as="geometry" />
        </mxCell>
        <mxCell id="pazXSuaWY3IOzkwAcKcH-112" value="iv_p_in&amp;nbsp; [28]" style="text;html=1;align=center;verticalAlign=middle;whiteSpace=wrap;rounded=0;" vertex="1" parent="1">
          <mxGeometry x="-410" y="760" width="60" height="30" as="geometry" />
        </mxCell>
        <mxCell id="pazXSuaWY3IOzkwAcKcH-113" style="edgeStyle=orthogonalEdgeStyle;rounded=0;orthogonalLoop=1;jettySize=auto;html=1;exitX=0.5;exitY=0;exitDx=0;exitDy=0;entryX=0;entryY=0.5;entryDx=0;entryDy=0;" edge="1" parent="1" source="pazXSuaWY3IOzkwAcKcH-114" target="pazXSuaWY3IOzkwAcKcH-312">
          <mxGeometry relative="1" as="geometry" />
        </mxCell>
        <mxCell id="pazXSuaWY3IOzkwAcKcH-114" value="iv_p_in&amp;nbsp; [29]" style="text;html=1;align=center;verticalAlign=middle;whiteSpace=wrap;rounded=0;" vertex="1" parent="1">
          <mxGeometry x="-470" y="760" width="60" height="30" as="geometry" />
        </mxCell>
        <mxCell id="pazXSuaWY3IOzkwAcKcH-115" style="edgeStyle=orthogonalEdgeStyle;rounded=0;orthogonalLoop=1;jettySize=auto;html=1;exitX=0.5;exitY=0;exitDx=0;exitDy=0;entryX=0;entryY=0.5;entryDx=0;entryDy=0;" edge="1" parent="1" source="pazXSuaWY3IOzkwAcKcH-116" target="pazXSuaWY3IOzkwAcKcH-308">
          <mxGeometry relative="1" as="geometry" />
        </mxCell>
        <mxCell id="pazXSuaWY3IOzkwAcKcH-116" value="iv_p_in&amp;nbsp; [27]" style="text;html=1;align=center;verticalAlign=middle;whiteSpace=wrap;rounded=0;" vertex="1" parent="1">
          <mxGeometry x="-350" y="760" width="60" height="30" as="geometry" />
        </mxCell>
        <mxCell id="pazXSuaWY3IOzkwAcKcH-117" style="edgeStyle=orthogonalEdgeStyle;rounded=0;orthogonalLoop=1;jettySize=auto;html=1;exitX=0.5;exitY=0;exitDx=0;exitDy=0;entryX=0;entryY=0.5;entryDx=0;entryDy=0;" edge="1" parent="1" source="pazXSuaWY3IOzkwAcKcH-118" target="pazXSuaWY3IOzkwAcKcH-250">
          <mxGeometry relative="1" as="geometry" />
        </mxCell>
        <mxCell id="pazXSuaWY3IOzkwAcKcH-118" value="iv_p_in&amp;nbsp; [31]" style="text;html=1;align=center;verticalAlign=middle;whiteSpace=wrap;rounded=0;" vertex="1" parent="1">
          <mxGeometry x="-590" y="760" width="60" height="30" as="geometry" />
        </mxCell>
        <mxCell id="pazXSuaWY3IOzkwAcKcH-119" style="edgeStyle=orthogonalEdgeStyle;rounded=0;orthogonalLoop=1;jettySize=auto;html=1;exitX=0.5;exitY=0;exitDx=0;exitDy=0;entryX=0;entryY=0.5;entryDx=0;entryDy=0;" edge="1" parent="1" source="pazXSuaWY3IOzkwAcKcH-120" target="pazXSuaWY3IOzkwAcKcH-268">
          <mxGeometry relative="1" as="geometry" />
        </mxCell>
        <mxCell id="pazXSuaWY3IOzkwAcKcH-120" value="iv_p_in&amp;nbsp; [3]" style="text;html=1;align=center;verticalAlign=middle;whiteSpace=wrap;rounded=0;" vertex="1" parent="1">
          <mxGeometry x="1090" y="760" width="60" height="30" as="geometry" />
        </mxCell>
        <mxCell id="pazXSuaWY3IOzkwAcKcH-121" style="edgeStyle=orthogonalEdgeStyle;rounded=0;orthogonalLoop=1;jettySize=auto;html=1;exitX=0.5;exitY=0;exitDx=0;exitDy=0;entryX=0;entryY=0.5;entryDx=0;entryDy=0;" edge="1" parent="1" source="pazXSuaWY3IOzkwAcKcH-122" target="pazXSuaWY3IOzkwAcKcH-252">
          <mxGeometry relative="1" as="geometry" />
        </mxCell>
        <mxCell id="pazXSuaWY3IOzkwAcKcH-122" value="iv_p_in&amp;nbsp; [30]" style="text;html=1;align=center;verticalAlign=middle;whiteSpace=wrap;rounded=0;" vertex="1" parent="1">
          <mxGeometry x="-530" y="760" width="60" height="30" as="geometry" />
        </mxCell>
        <mxCell id="pazXSuaWY3IOzkwAcKcH-123" style="edgeStyle=orthogonalEdgeStyle;rounded=0;orthogonalLoop=1;jettySize=auto;html=1;exitX=0.5;exitY=0;exitDx=0;exitDy=0;entryX=0;entryY=0.5;entryDx=0;entryDy=0;" edge="1" parent="1" source="pazXSuaWY3IOzkwAcKcH-124" target="pazXSuaWY3IOzkwAcKcH-264">
          <mxGeometry relative="1" as="geometry" />
        </mxCell>
        <mxCell id="pazXSuaWY3IOzkwAcKcH-124" value="iv_p_in&amp;nbsp; [1]" style="text;html=1;align=center;verticalAlign=middle;whiteSpace=wrap;rounded=0;" vertex="1" parent="1">
          <mxGeometry x="1210" y="760" width="60" height="30" as="geometry" />
        </mxCell>
        <mxCell id="pazXSuaWY3IOzkwAcKcH-125" style="edgeStyle=orthogonalEdgeStyle;rounded=0;orthogonalLoop=1;jettySize=auto;html=1;exitX=0.5;exitY=0;exitDx=0;exitDy=0;entryX=0;entryY=0.5;entryDx=0;entryDy=0;" edge="1" parent="1" source="pazXSuaWY3IOzkwAcKcH-126" target="pazXSuaWY3IOzkwAcKcH-266">
          <mxGeometry relative="1" as="geometry" />
        </mxCell>
        <mxCell id="pazXSuaWY3IOzkwAcKcH-126" value="iv_p_in&amp;nbsp; [2]" style="text;html=1;align=center;verticalAlign=middle;whiteSpace=wrap;rounded=0;" vertex="1" parent="1">
          <mxGeometry x="1150" y="760" width="60" height="30" as="geometry" />
        </mxCell>
        <mxCell id="pazXSuaWY3IOzkwAcKcH-127" style="edgeStyle=orthogonalEdgeStyle;rounded=0;orthogonalLoop=1;jettySize=auto;html=1;exitX=0.5;exitY=0;exitDx=0;exitDy=0;entryX=0;entryY=0.5;entryDx=0;entryDy=0;" edge="1" parent="1" source="pazXSuaWY3IOzkwAcKcH-128" target="pazXSuaWY3IOzkwAcKcH-262">
          <mxGeometry relative="1" as="geometry" />
        </mxCell>
        <mxCell id="pazXSuaWY3IOzkwAcKcH-128" value="iv_p_in&amp;nbsp; [0]" style="text;html=1;align=center;verticalAlign=middle;whiteSpace=wrap;rounded=0;" vertex="1" parent="1">
          <mxGeometry x="1270" y="760" width="60" height="30" as="geometry" />
        </mxCell>
        <mxCell id="pazXSuaWY3IOzkwAcKcH-129" value="ciphertext [63]" style="text;html=1;align=center;verticalAlign=middle;whiteSpace=wrap;rounded=0;" vertex="1" parent="1">
          <mxGeometry x="-710" y="50" width="80" height="20" as="geometry" />
        </mxCell>
        <mxCell id="pazXSuaWY3IOzkwAcKcH-130" value="ciphertext [38]" style="text;html=1;align=center;verticalAlign=middle;whiteSpace=wrap;rounded=0;" vertex="1" parent="1">
          <mxGeometry x="-710" y="550" width="80" height="20" as="geometry" />
        </mxCell>
        <mxCell id="pazXSuaWY3IOzkwAcKcH-131" value="ciphertext [36]" style="text;html=1;align=center;verticalAlign=middle;whiteSpace=wrap;rounded=0;" vertex="1" parent="1">
          <mxGeometry x="-710" y="590" width="80" height="20" as="geometry" />
        </mxCell>
        <mxCell id="pazXSuaWY3IOzkwAcKcH-132" value="ciphertext [39]" style="text;html=1;align=center;verticalAlign=middle;whiteSpace=wrap;rounded=0;" vertex="1" parent="1">
          <mxGeometry x="-710" y="530" width="80" height="20" as="geometry" />
        </mxCell>
        <mxCell id="pazXSuaWY3IOzkwAcKcH-133" value="ciphertext [37]" style="text;html=1;align=center;verticalAlign=middle;whiteSpace=wrap;rounded=0;" vertex="1" parent="1">
          <mxGeometry x="-710" y="570" width="80" height="20" as="geometry" />
        </mxCell>
        <mxCell id="pazXSuaWY3IOzkwAcKcH-134" value="ciphertext [40]" style="text;html=1;align=center;verticalAlign=middle;whiteSpace=wrap;rounded=0;" vertex="1" parent="1">
          <mxGeometry x="-710" y="510" width="80" height="20" as="geometry" />
        </mxCell>
        <mxCell id="pazXSuaWY3IOzkwAcKcH-135" value="ciphertext [41]" style="text;html=1;align=center;verticalAlign=middle;whiteSpace=wrap;rounded=0;" vertex="1" parent="1">
          <mxGeometry x="-710" y="490" width="80" height="20" as="geometry" />
        </mxCell>
        <mxCell id="pazXSuaWY3IOzkwAcKcH-136" value="ciphertext [42]" style="text;html=1;align=center;verticalAlign=middle;whiteSpace=wrap;rounded=0;" vertex="1" parent="1">
          <mxGeometry x="-710" y="470" width="80" height="20" as="geometry" />
        </mxCell>
        <mxCell id="pazXSuaWY3IOzkwAcKcH-137" value="ciphertext [43]" style="text;html=1;align=center;verticalAlign=middle;whiteSpace=wrap;rounded=0;" vertex="1" parent="1">
          <mxGeometry x="-710" y="450" width="80" height="20" as="geometry" />
        </mxCell>
        <mxCell id="pazXSuaWY3IOzkwAcKcH-138" value="ciphertext [44]" style="text;html=1;align=center;verticalAlign=middle;whiteSpace=wrap;rounded=0;" vertex="1" parent="1">
          <mxGeometry x="-710" y="430" width="80" height="20" as="geometry" />
        </mxCell>
        <mxCell id="pazXSuaWY3IOzkwAcKcH-139" value="ciphertext [45]" style="text;html=1;align=center;verticalAlign=middle;whiteSpace=wrap;rounded=0;" vertex="1" parent="1">
          <mxGeometry x="-710" y="410" width="80" height="20" as="geometry" />
        </mxCell>
        <mxCell id="pazXSuaWY3IOzkwAcKcH-140" value="ciphertext [46]" style="text;html=1;align=center;verticalAlign=middle;whiteSpace=wrap;rounded=0;" vertex="1" parent="1">
          <mxGeometry x="-710" y="390" width="80" height="20" as="geometry" />
        </mxCell>
        <mxCell id="pazXSuaWY3IOzkwAcKcH-141" value="ciphertext [47]" style="text;html=1;align=center;verticalAlign=middle;whiteSpace=wrap;rounded=0;" vertex="1" parent="1">
          <mxGeometry x="-710" y="370" width="80" height="20" as="geometry" />
        </mxCell>
        <mxCell id="pazXSuaWY3IOzkwAcKcH-142" value="ciphertext [48]" style="text;html=1;align=center;verticalAlign=middle;whiteSpace=wrap;rounded=0;" vertex="1" parent="1">
          <mxGeometry x="-710" y="350" width="80" height="20" as="geometry" />
        </mxCell>
        <mxCell id="pazXSuaWY3IOzkwAcKcH-143" value="ciphertext [49]" style="text;html=1;align=center;verticalAlign=middle;whiteSpace=wrap;rounded=0;" vertex="1" parent="1">
          <mxGeometry x="-710" y="330" width="80" height="20" as="geometry" />
        </mxCell>
        <mxCell id="pazXSuaWY3IOzkwAcKcH-144" value="ciphertext [50]" style="text;html=1;align=center;verticalAlign=middle;whiteSpace=wrap;rounded=0;" vertex="1" parent="1">
          <mxGeometry x="-710" y="310" width="80" height="20" as="geometry" />
        </mxCell>
        <mxCell id="pazXSuaWY3IOzkwAcKcH-145" value="ciphertext [51]" style="text;html=1;align=center;verticalAlign=middle;whiteSpace=wrap;rounded=0;" vertex="1" parent="1">
          <mxGeometry x="-710" y="290" width="80" height="20" as="geometry" />
        </mxCell>
        <mxCell id="pazXSuaWY3IOzkwAcKcH-146" value="ciphertext [52]" style="text;html=1;align=center;verticalAlign=middle;whiteSpace=wrap;rounded=0;" vertex="1" parent="1">
          <mxGeometry x="-710" y="270" width="80" height="20" as="geometry" />
        </mxCell>
        <mxCell id="pazXSuaWY3IOzkwAcKcH-147" value="ciphertext [53]" style="text;html=1;align=center;verticalAlign=middle;whiteSpace=wrap;rounded=0;" vertex="1" parent="1">
          <mxGeometry x="-710" y="250" width="80" height="20" as="geometry" />
        </mxCell>
        <mxCell id="pazXSuaWY3IOzkwAcKcH-148" value="ciphertext [54]" style="text;html=1;align=center;verticalAlign=middle;whiteSpace=wrap;rounded=0;" vertex="1" parent="1">
          <mxGeometry x="-710" y="230" width="80" height="20" as="geometry" />
        </mxCell>
        <mxCell id="pazXSuaWY3IOzkwAcKcH-149" value="ciphertext [55]" style="text;html=1;align=center;verticalAlign=middle;whiteSpace=wrap;rounded=0;" vertex="1" parent="1">
          <mxGeometry x="-710" y="210" width="80" height="20" as="geometry" />
        </mxCell>
        <mxCell id="pazXSuaWY3IOzkwAcKcH-150" value="ciphertext [56]" style="text;html=1;align=center;verticalAlign=middle;whiteSpace=wrap;rounded=0;" vertex="1" parent="1">
          <mxGeometry x="-710" y="190" width="80" height="20" as="geometry" />
        </mxCell>
        <mxCell id="pazXSuaWY3IOzkwAcKcH-151" value="ciphertext [57]" style="text;html=1;align=center;verticalAlign=middle;whiteSpace=wrap;rounded=0;" vertex="1" parent="1">
          <mxGeometry x="-710" y="170" width="80" height="20" as="geometry" />
        </mxCell>
        <mxCell id="pazXSuaWY3IOzkwAcKcH-152" value="ciphertext [58]" style="text;html=1;align=center;verticalAlign=middle;whiteSpace=wrap;rounded=0;" vertex="1" parent="1">
          <mxGeometry x="-710" y="150" width="80" height="20" as="geometry" />
        </mxCell>
        <mxCell id="pazXSuaWY3IOzkwAcKcH-153" value="ciphertext [60]" style="text;html=1;align=center;verticalAlign=middle;whiteSpace=wrap;rounded=0;" vertex="1" parent="1">
          <mxGeometry x="-710" y="110" width="80" height="20" as="geometry" />
        </mxCell>
        <mxCell id="pazXSuaWY3IOzkwAcKcH-154" value="ciphertext [59]" style="text;html=1;align=center;verticalAlign=middle;whiteSpace=wrap;rounded=0;" vertex="1" parent="1">
          <mxGeometry x="-710" y="130" width="80" height="20" as="geometry" />
        </mxCell>
        <mxCell id="pazXSuaWY3IOzkwAcKcH-155" value="ciphertext [61]" style="text;html=1;align=center;verticalAlign=middle;whiteSpace=wrap;rounded=0;" vertex="1" parent="1">
          <mxGeometry x="-710" y="90" width="80" height="20" as="geometry" />
        </mxCell>
        <mxCell id="pazXSuaWY3IOzkwAcKcH-156" value="ciphertext [62]" style="text;html=1;align=center;verticalAlign=middle;whiteSpace=wrap;rounded=0;" vertex="1" parent="1">
          <mxGeometry x="-710" y="70" width="80" height="20" as="geometry" />
        </mxCell>
        <mxCell id="pazXSuaWY3IOzkwAcKcH-157" value="ciphertext [31]" style="text;html=1;align=center;verticalAlign=middle;whiteSpace=wrap;rounded=0;" vertex="1" parent="1">
          <mxGeometry x="1380" y="50" width="80" height="20" as="geometry" />
        </mxCell>
        <mxCell id="pazXSuaWY3IOzkwAcKcH-158" value="ciphertext [6]" style="text;html=1;align=center;verticalAlign=middle;whiteSpace=wrap;rounded=0;" vertex="1" parent="1">
          <mxGeometry x="1380" y="550" width="80" height="20" as="geometry" />
        </mxCell>
        <mxCell id="pazXSuaWY3IOzkwAcKcH-159" value="ciphertext [4]" style="text;html=1;align=center;verticalAlign=middle;whiteSpace=wrap;rounded=0;" vertex="1" parent="1">
          <mxGeometry x="1380" y="590" width="80" height="20" as="geometry" />
        </mxCell>
        <mxCell id="pazXSuaWY3IOzkwAcKcH-160" value="ciphertext [7]" style="text;html=1;align=center;verticalAlign=middle;whiteSpace=wrap;rounded=0;" vertex="1" parent="1">
          <mxGeometry x="1380" y="530" width="80" height="20" as="geometry" />
        </mxCell>
        <mxCell id="pazXSuaWY3IOzkwAcKcH-161" value="ciphertext [5]" style="text;html=1;align=center;verticalAlign=middle;whiteSpace=wrap;rounded=0;" vertex="1" parent="1">
          <mxGeometry x="1380" y="570" width="80" height="20" as="geometry" />
        </mxCell>
        <mxCell id="pazXSuaWY3IOzkwAcKcH-162" value="ciphertext [8]" style="text;html=1;align=center;verticalAlign=middle;whiteSpace=wrap;rounded=0;" vertex="1" parent="1">
          <mxGeometry x="1380" y="510" width="80" height="20" as="geometry" />
        </mxCell>
        <mxCell id="pazXSuaWY3IOzkwAcKcH-163" value="ciphertext [9]" style="text;html=1;align=center;verticalAlign=middle;whiteSpace=wrap;rounded=0;" vertex="1" parent="1">
          <mxGeometry x="1380" y="490" width="80" height="20" as="geometry" />
        </mxCell>
        <mxCell id="pazXSuaWY3IOzkwAcKcH-164" value="ciphertext [10]" style="text;html=1;align=center;verticalAlign=middle;whiteSpace=wrap;rounded=0;" vertex="1" parent="1">
          <mxGeometry x="1380" y="470" width="80" height="20" as="geometry" />
        </mxCell>
        <mxCell id="pazXSuaWY3IOzkwAcKcH-165" value="ciphertext [11]" style="text;html=1;align=center;verticalAlign=middle;whiteSpace=wrap;rounded=0;" vertex="1" parent="1">
          <mxGeometry x="1380" y="450" width="80" height="20" as="geometry" />
        </mxCell>
        <mxCell id="pazXSuaWY3IOzkwAcKcH-166" value="ciphertext [12]" style="text;html=1;align=center;verticalAlign=middle;whiteSpace=wrap;rounded=0;" vertex="1" parent="1">
          <mxGeometry x="1380" y="430" width="80" height="20" as="geometry" />
        </mxCell>
        <mxCell id="pazXSuaWY3IOzkwAcKcH-167" value="ciphertext [13]" style="text;html=1;align=center;verticalAlign=middle;whiteSpace=wrap;rounded=0;" vertex="1" parent="1">
          <mxGeometry x="1380" y="410" width="80" height="20" as="geometry" />
        </mxCell>
        <mxCell id="pazXSuaWY3IOzkwAcKcH-168" value="ciphertext [14]" style="text;html=1;align=center;verticalAlign=middle;whiteSpace=wrap;rounded=0;" vertex="1" parent="1">
          <mxGeometry x="1380" y="390" width="80" height="20" as="geometry" />
        </mxCell>
        <mxCell id="pazXSuaWY3IOzkwAcKcH-169" value="ciphertext [15]" style="text;html=1;align=center;verticalAlign=middle;whiteSpace=wrap;rounded=0;" vertex="1" parent="1">
          <mxGeometry x="1380" y="370" width="80" height="20" as="geometry" />
        </mxCell>
        <mxCell id="pazXSuaWY3IOzkwAcKcH-170" value="ciphertext [16]" style="text;html=1;align=center;verticalAlign=middle;whiteSpace=wrap;rounded=0;" vertex="1" parent="1">
          <mxGeometry x="1380" y="350" width="80" height="20" as="geometry" />
        </mxCell>
        <mxCell id="pazXSuaWY3IOzkwAcKcH-171" value="ciphertext [17]" style="text;html=1;align=center;verticalAlign=middle;whiteSpace=wrap;rounded=0;" vertex="1" parent="1">
          <mxGeometry x="1380" y="330" width="80" height="20" as="geometry" />
        </mxCell>
        <mxCell id="pazXSuaWY3IOzkwAcKcH-172" value="ciphertext [18]" style="text;html=1;align=center;verticalAlign=middle;whiteSpace=wrap;rounded=0;" vertex="1" parent="1">
          <mxGeometry x="1380" y="310" width="80" height="20" as="geometry" />
        </mxCell>
        <mxCell id="pazXSuaWY3IOzkwAcKcH-173" value="ciphertext [19]" style="text;html=1;align=center;verticalAlign=middle;whiteSpace=wrap;rounded=0;" vertex="1" parent="1">
          <mxGeometry x="1380" y="290" width="80" height="20" as="geometry" />
        </mxCell>
        <mxCell id="pazXSuaWY3IOzkwAcKcH-174" value="ciphertext [20]" style="text;html=1;align=center;verticalAlign=middle;whiteSpace=wrap;rounded=0;" vertex="1" parent="1">
          <mxGeometry x="1380" y="270" width="80" height="20" as="geometry" />
        </mxCell>
        <mxCell id="pazXSuaWY3IOzkwAcKcH-175" value="ciphertext [21]" style="text;html=1;align=center;verticalAlign=middle;whiteSpace=wrap;rounded=0;" vertex="1" parent="1">
          <mxGeometry x="1380" y="250" width="80" height="20" as="geometry" />
        </mxCell>
        <mxCell id="pazXSuaWY3IOzkwAcKcH-176" value="ciphertext [22]" style="text;html=1;align=center;verticalAlign=middle;whiteSpace=wrap;rounded=0;" vertex="1" parent="1">
          <mxGeometry x="1380" y="230" width="80" height="20" as="geometry" />
        </mxCell>
        <mxCell id="pazXSuaWY3IOzkwAcKcH-177" value="ciphertext [23]" style="text;html=1;align=center;verticalAlign=middle;whiteSpace=wrap;rounded=0;" vertex="1" parent="1">
          <mxGeometry x="1380" y="210" width="80" height="20" as="geometry" />
        </mxCell>
        <mxCell id="pazXSuaWY3IOzkwAcKcH-178" value="ciphertext [24]" style="text;html=1;align=center;verticalAlign=middle;whiteSpace=wrap;rounded=0;" vertex="1" parent="1">
          <mxGeometry x="1380" y="190" width="80" height="20" as="geometry" />
        </mxCell>
        <mxCell id="pazXSuaWY3IOzkwAcKcH-179" value="ciphertext [25]" style="text;html=1;align=center;verticalAlign=middle;whiteSpace=wrap;rounded=0;" vertex="1" parent="1">
          <mxGeometry x="1380" y="170" width="80" height="20" as="geometry" />
        </mxCell>
        <mxCell id="pazXSuaWY3IOzkwAcKcH-180" value="ciphertext [26]" style="text;html=1;align=center;verticalAlign=middle;whiteSpace=wrap;rounded=0;" vertex="1" parent="1">
          <mxGeometry x="1380" y="150" width="80" height="20" as="geometry" />
        </mxCell>
        <mxCell id="pazXSuaWY3IOzkwAcKcH-181" value="ciphertext [28]" style="text;html=1;align=center;verticalAlign=middle;whiteSpace=wrap;rounded=0;" vertex="1" parent="1">
          <mxGeometry x="1380" y="110" width="80" height="20" as="geometry" />
        </mxCell>
        <mxCell id="pazXSuaWY3IOzkwAcKcH-182" value="ciphertext [27]" style="text;html=1;align=center;verticalAlign=middle;whiteSpace=wrap;rounded=0;" vertex="1" parent="1">
          <mxGeometry x="1380" y="130" width="80" height="20" as="geometry" />
        </mxCell>
        <mxCell id="pazXSuaWY3IOzkwAcKcH-183" value="ciphertext [29]" style="text;html=1;align=center;verticalAlign=middle;whiteSpace=wrap;rounded=0;" vertex="1" parent="1">
          <mxGeometry x="1380" y="90" width="80" height="20" as="geometry" />
        </mxCell>
        <mxCell id="pazXSuaWY3IOzkwAcKcH-184" value="ciphertext [30]" style="text;html=1;align=center;verticalAlign=middle;whiteSpace=wrap;rounded=0;" vertex="1" parent="1">
          <mxGeometry x="1380" y="70" width="80" height="20" as="geometry" />
        </mxCell>
        <mxCell id="pazXSuaWY3IOzkwAcKcH-384" style="edgeStyle=orthogonalEdgeStyle;rounded=0;orthogonalLoop=1;jettySize=auto;html=1;exitX=1;exitY=0.5;exitDx=0;exitDy=0;entryX=0;entryY=0.5;entryDx=0;entryDy=0;" edge="1" parent="1" source="pazXSuaWY3IOzkwAcKcH-186" target="pazXSuaWY3IOzkwAcKcH-158">
          <mxGeometry relative="1" as="geometry">
            <Array as="points">
              <mxPoint x="-560" y="50" />
              <mxPoint x="-570" y="50" />
              <mxPoint x="-570" y="570" />
              <mxPoint x="1360" y="570" />
              <mxPoint x="1360" y="560" />
            </Array>
          </mxGeometry>
        </mxCell>
        <mxCell id="pazXSuaWY3IOzkwAcKcH-186" value="" style="triangle;whiteSpace=wrap;html=1;rotation=90;" vertex="1" parent="1">
          <mxGeometry x="-570" y="10" width="20" height="30" as="geometry" />
        </mxCell>
        <mxCell id="pazXSuaWY3IOzkwAcKcH-376" style="edgeStyle=orthogonalEdgeStyle;rounded=0;orthogonalLoop=1;jettySize=auto;html=1;exitX=1;exitY=0.5;exitDx=0;exitDy=0;entryX=0;entryY=0.5;entryDx=0;entryDy=0;" edge="1" parent="1" source="pazXSuaWY3IOzkwAcKcH-188" target="pazXSuaWY3IOzkwAcKcH-168">
          <mxGeometry relative="1" as="geometry">
            <Array as="points">
              <mxPoint x="-500" y="50" />
              <mxPoint x="-510" y="50" />
              <mxPoint x="-510" y="410" />
              <mxPoint x="1360" y="410" />
              <mxPoint x="1360" y="400" />
            </Array>
          </mxGeometry>
        </mxCell>
        <mxCell id="pazXSuaWY3IOzkwAcKcH-188" value="" style="triangle;whiteSpace=wrap;html=1;rotation=90;" vertex="1" parent="1">
          <mxGeometry x="-510" y="10" width="20" height="30" as="geometry" />
        </mxCell>
        <mxCell id="pazXSuaWY3IOzkwAcKcH-356" style="edgeStyle=orthogonalEdgeStyle;rounded=0;orthogonalLoop=1;jettySize=auto;html=1;exitX=1;exitY=0.5;exitDx=0;exitDy=0;entryX=1;entryY=0.5;entryDx=0;entryDy=0;" edge="1" parent="1" source="pazXSuaWY3IOzkwAcKcH-190" target="pazXSuaWY3IOzkwAcKcH-315">
          <mxGeometry relative="1" as="geometry">
            <Array as="points">
              <mxPoint x="640" y="50" />
              <mxPoint x="630" y="50" />
              <mxPoint x="630" y="640" />
            </Array>
          </mxGeometry>
        </mxCell>
        <mxCell id="pazXSuaWY3IOzkwAcKcH-190" value="" style="triangle;whiteSpace=wrap;html=1;rotation=90;" vertex="1" parent="1">
          <mxGeometry x="630" y="10" width="20" height="30" as="geometry" />
        </mxCell>
        <mxCell id="pazXSuaWY3IOzkwAcKcH-348" style="edgeStyle=orthogonalEdgeStyle;rounded=0;orthogonalLoop=1;jettySize=auto;html=1;exitX=1;exitY=0.5;exitDx=0;exitDy=0;entryX=1;entryY=0.5;entryDx=0;entryDy=0;" edge="1" parent="1" source="pazXSuaWY3IOzkwAcKcH-192" target="pazXSuaWY3IOzkwAcKcH-136">
          <mxGeometry relative="1" as="geometry">
            <Array as="points">
              <mxPoint x="700" y="50" />
              <mxPoint x="690" y="50" />
              <mxPoint x="690" y="480" />
            </Array>
          </mxGeometry>
        </mxCell>
        <mxCell id="pazXSuaWY3IOzkwAcKcH-192" value="" style="triangle;whiteSpace=wrap;html=1;rotation=90;" vertex="1" parent="1">
          <mxGeometry x="690" y="10" width="20" height="30" as="geometry" />
        </mxCell>
        <mxCell id="pazXSuaWY3IOzkwAcKcH-339" style="edgeStyle=orthogonalEdgeStyle;rounded=0;orthogonalLoop=1;jettySize=auto;html=1;exitX=1;exitY=0.5;exitDx=0;exitDy=0;entryX=1;entryY=0.5;entryDx=0;entryDy=0;" edge="1" parent="1" source="pazXSuaWY3IOzkwAcKcH-194" target="pazXSuaWY3IOzkwAcKcH-144">
          <mxGeometry relative="1" as="geometry">
            <Array as="points">
              <mxPoint x="760" y="50" />
              <mxPoint x="750" y="50" />
              <mxPoint x="750" y="320" />
            </Array>
          </mxGeometry>
        </mxCell>
        <mxCell id="pazXSuaWY3IOzkwAcKcH-194" value="" style="triangle;whiteSpace=wrap;html=1;rotation=90;" vertex="1" parent="1">
          <mxGeometry x="750" y="10" width="20" height="30" as="geometry" />
        </mxCell>
        <mxCell id="pazXSuaWY3IOzkwAcKcH-331" style="edgeStyle=orthogonalEdgeStyle;rounded=0;orthogonalLoop=1;jettySize=auto;html=1;exitX=1;exitY=0.5;exitDx=0;exitDy=0;entryX=1;entryY=0.5;entryDx=0;entryDy=0;" edge="1" parent="1" source="pazXSuaWY3IOzkwAcKcH-196" target="pazXSuaWY3IOzkwAcKcH-152">
          <mxGeometry relative="1" as="geometry">
            <Array as="points">
              <mxPoint x="820" y="50" />
              <mxPoint x="810" y="50" />
              <mxPoint x="810" y="160" />
            </Array>
          </mxGeometry>
        </mxCell>
        <mxCell id="pazXSuaWY3IOzkwAcKcH-196" value="" style="triangle;whiteSpace=wrap;html=1;rotation=90;" vertex="1" parent="1">
          <mxGeometry x="810" y="10" width="20" height="30" as="geometry" />
        </mxCell>
        <mxCell id="pazXSuaWY3IOzkwAcKcH-333" style="edgeStyle=orthogonalEdgeStyle;rounded=0;orthogonalLoop=1;jettySize=auto;html=1;exitX=1;exitY=0.5;exitDx=0;exitDy=0;entryX=1;entryY=0.5;entryDx=0;entryDy=0;" edge="1" parent="1" source="pazXSuaWY3IOzkwAcKcH-198" target="pazXSuaWY3IOzkwAcKcH-150">
          <mxGeometry relative="1" as="geometry">
            <Array as="points">
              <mxPoint x="1300" y="50" />
              <mxPoint x="1290" y="50" />
              <mxPoint x="1290" y="200" />
            </Array>
          </mxGeometry>
        </mxCell>
        <mxCell id="pazXSuaWY3IOzkwAcKcH-198" value="" style="triangle;whiteSpace=wrap;html=1;rotation=90;" vertex="1" parent="1">
          <mxGeometry x="1290" y="10" width="20" height="30" as="geometry" />
        </mxCell>
        <mxCell id="pazXSuaWY3IOzkwAcKcH-341" style="edgeStyle=orthogonalEdgeStyle;rounded=0;orthogonalLoop=1;jettySize=auto;html=1;exitX=1;exitY=0.5;exitDx=0;exitDy=0;entryX=1;entryY=0.5;entryDx=0;entryDy=0;" edge="1" parent="1" source="pazXSuaWY3IOzkwAcKcH-200" target="pazXSuaWY3IOzkwAcKcH-142">
          <mxGeometry relative="1" as="geometry">
            <Array as="points">
              <mxPoint x="1240" y="50" />
              <mxPoint x="1230" y="50" />
              <mxPoint x="1230" y="360" />
            </Array>
          </mxGeometry>
        </mxCell>
        <mxCell id="pazXSuaWY3IOzkwAcKcH-200" value="" style="triangle;whiteSpace=wrap;html=1;rotation=90;" vertex="1" parent="1">
          <mxGeometry x="1230" y="10" width="20" height="30" as="geometry" />
        </mxCell>
        <mxCell id="pazXSuaWY3IOzkwAcKcH-350" style="edgeStyle=orthogonalEdgeStyle;rounded=0;orthogonalLoop=1;jettySize=auto;html=1;exitX=1;exitY=0.5;exitDx=0;exitDy=0;entryX=1;entryY=0.5;entryDx=0;entryDy=0;" edge="1" parent="1" source="pazXSuaWY3IOzkwAcKcH-202" target="pazXSuaWY3IOzkwAcKcH-134">
          <mxGeometry relative="1" as="geometry">
            <Array as="points">
              <mxPoint x="1180" y="50" />
              <mxPoint x="1170" y="50" />
              <mxPoint x="1170" y="520" />
            </Array>
          </mxGeometry>
        </mxCell>
        <mxCell id="pazXSuaWY3IOzkwAcKcH-202" value="" style="triangle;whiteSpace=wrap;html=1;rotation=90;" vertex="1" parent="1">
          <mxGeometry x="1170" y="10" width="20" height="30" as="geometry" />
        </mxCell>
        <mxCell id="pazXSuaWY3IOzkwAcKcH-358" style="edgeStyle=orthogonalEdgeStyle;rounded=0;orthogonalLoop=1;jettySize=auto;html=1;exitX=1;exitY=0.5;exitDx=0;exitDy=0;entryX=1;entryY=0.5;entryDx=0;entryDy=0;" edge="1" parent="1" source="pazXSuaWY3IOzkwAcKcH-204" target="pazXSuaWY3IOzkwAcKcH-313">
          <mxGeometry relative="1" as="geometry">
            <Array as="points">
              <mxPoint x="1120" y="50" />
              <mxPoint x="1110" y="50" />
              <mxPoint x="1110" y="680" />
            </Array>
          </mxGeometry>
        </mxCell>
        <mxCell id="pazXSuaWY3IOzkwAcKcH-204" value="" style="triangle;whiteSpace=wrap;html=1;rotation=90;" vertex="1" parent="1">
          <mxGeometry x="1110" y="10" width="20" height="30" as="geometry" />
        </mxCell>
        <mxCell id="pazXSuaWY3IOzkwAcKcH-366" style="edgeStyle=orthogonalEdgeStyle;rounded=0;orthogonalLoop=1;jettySize=auto;html=1;exitX=1;exitY=0.5;exitDx=0;exitDy=0;entryX=0;entryY=0.5;entryDx=0;entryDy=0;" edge="1" parent="1" source="pazXSuaWY3IOzkwAcKcH-206" target="pazXSuaWY3IOzkwAcKcH-178">
          <mxGeometry relative="1" as="geometry">
            <Array as="points">
              <mxPoint x="1060" y="50" />
              <mxPoint x="1050" y="50" />
              <mxPoint x="1050" y="210" />
              <mxPoint x="1360" y="210" />
              <mxPoint x="1360" y="200" />
            </Array>
          </mxGeometry>
        </mxCell>
        <mxCell id="pazXSuaWY3IOzkwAcKcH-206" value="" style="triangle;whiteSpace=wrap;html=1;rotation=90;" vertex="1" parent="1">
          <mxGeometry x="1050" y="10" width="20" height="30" as="geometry" />
        </mxCell>
        <mxCell id="pazXSuaWY3IOzkwAcKcH-374" style="edgeStyle=orthogonalEdgeStyle;rounded=0;orthogonalLoop=1;jettySize=auto;html=1;exitX=1;exitY=0.5;exitDx=0;exitDy=0;entryX=0;entryY=0.5;entryDx=0;entryDy=0;" edge="1" parent="1" source="pazXSuaWY3IOzkwAcKcH-208" target="pazXSuaWY3IOzkwAcKcH-170">
          <mxGeometry relative="1" as="geometry">
            <Array as="points">
              <mxPoint x="1000" y="50" />
              <mxPoint x="990" y="50" />
              <mxPoint x="990" y="370" />
              <mxPoint x="1360" y="370" />
              <mxPoint x="1360" y="360" />
            </Array>
          </mxGeometry>
        </mxCell>
        <mxCell id="pazXSuaWY3IOzkwAcKcH-208" value="" style="triangle;whiteSpace=wrap;html=1;rotation=90;" vertex="1" parent="1">
          <mxGeometry x="990" y="10" width="20" height="30" as="geometry" />
        </mxCell>
        <mxCell id="pazXSuaWY3IOzkwAcKcH-382" style="edgeStyle=orthogonalEdgeStyle;rounded=0;orthogonalLoop=1;jettySize=auto;html=1;exitX=1;exitY=0.5;exitDx=0;exitDy=0;entryX=0;entryY=0.5;entryDx=0;entryDy=0;" edge="1" parent="1" source="pazXSuaWY3IOzkwAcKcH-210" target="pazXSuaWY3IOzkwAcKcH-162">
          <mxGeometry relative="1" as="geometry">
            <Array as="points">
              <mxPoint x="940" y="50" />
              <mxPoint x="930" y="50" />
              <mxPoint x="930" y="530" />
              <mxPoint x="1360" y="530" />
              <mxPoint x="1360" y="520" />
            </Array>
          </mxGeometry>
        </mxCell>
        <mxCell id="pazXSuaWY3IOzkwAcKcH-210" value="" style="triangle;whiteSpace=wrap;html=1;rotation=90;" vertex="1" parent="1">
          <mxGeometry x="930" y="10" width="20" height="30" as="geometry" />
        </mxCell>
        <mxCell id="pazXSuaWY3IOzkwAcKcH-391" style="edgeStyle=orthogonalEdgeStyle;rounded=0;orthogonalLoop=1;jettySize=auto;html=1;exitX=1;exitY=0.5;exitDx=0;exitDy=0;entryX=0;entryY=0.5;entryDx=0;entryDy=0;" edge="1" parent="1" source="pazXSuaWY3IOzkwAcKcH-212" target="pazXSuaWY3IOzkwAcKcH-317">
          <mxGeometry relative="1" as="geometry">
            <Array as="points">
              <mxPoint x="880" y="50" />
              <mxPoint x="870" y="50" />
              <mxPoint x="870" y="690" />
              <mxPoint x="1360" y="690" />
              <mxPoint x="1360" y="680" />
            </Array>
          </mxGeometry>
        </mxCell>
        <mxCell id="pazXSuaWY3IOzkwAcKcH-212" value="" style="triangle;whiteSpace=wrap;html=1;rotation=90;" vertex="1" parent="1">
          <mxGeometry x="870" y="10" width="20" height="30" as="geometry" />
        </mxCell>
        <mxCell id="pazXSuaWY3IOzkwAcKcH-364" style="edgeStyle=orthogonalEdgeStyle;rounded=0;orthogonalLoop=1;jettySize=auto;html=1;exitX=1;exitY=0.5;exitDx=0;exitDy=0;entryX=0;entryY=0.5;entryDx=0;entryDy=0;" edge="1" parent="1" source="pazXSuaWY3IOzkwAcKcH-214" target="pazXSuaWY3IOzkwAcKcH-180">
          <mxGeometry relative="1" as="geometry">
            <Array as="points">
              <mxPoint x="580" y="50" />
              <mxPoint x="570" y="50" />
              <mxPoint x="570" y="170" />
              <mxPoint x="1360" y="170" />
              <mxPoint x="1360" y="160" />
            </Array>
          </mxGeometry>
        </mxCell>
        <mxCell id="pazXSuaWY3IOzkwAcKcH-214" value="" style="triangle;whiteSpace=wrap;html=1;rotation=90;" vertex="1" parent="1">
          <mxGeometry x="570" y="10" width="20" height="30" as="geometry" />
        </mxCell>
        <mxCell id="pazXSuaWY3IOzkwAcKcH-372" style="edgeStyle=orthogonalEdgeStyle;rounded=0;orthogonalLoop=1;jettySize=auto;html=1;exitX=1;exitY=0.5;exitDx=0;exitDy=0;entryX=0;entryY=0.5;entryDx=0;entryDy=0;" edge="1" parent="1" source="pazXSuaWY3IOzkwAcKcH-216" target="pazXSuaWY3IOzkwAcKcH-172">
          <mxGeometry relative="1" as="geometry">
            <Array as="points">
              <mxPoint x="520" y="50" />
              <mxPoint x="510" y="50" />
              <mxPoint x="510" y="330" />
              <mxPoint x="1360" y="330" />
              <mxPoint x="1360" y="320" />
            </Array>
          </mxGeometry>
        </mxCell>
        <mxCell id="pazXSuaWY3IOzkwAcKcH-216" value="" style="triangle;whiteSpace=wrap;html=1;rotation=90;" vertex="1" parent="1">
          <mxGeometry x="510" y="10" width="20" height="30" as="geometry" />
        </mxCell>
        <mxCell id="pazXSuaWY3IOzkwAcKcH-380" style="edgeStyle=orthogonalEdgeStyle;rounded=0;orthogonalLoop=1;jettySize=auto;html=1;exitX=1;exitY=0.5;exitDx=0;exitDy=0;entryX=0;entryY=0.5;entryDx=0;entryDy=0;" edge="1" parent="1" source="pazXSuaWY3IOzkwAcKcH-218" target="pazXSuaWY3IOzkwAcKcH-164">
          <mxGeometry relative="1" as="geometry">
            <Array as="points">
              <mxPoint x="460" y="50" />
              <mxPoint x="450" y="50" />
              <mxPoint x="450" y="490" />
              <mxPoint x="1360" y="490" />
              <mxPoint x="1360" y="480" />
            </Array>
          </mxGeometry>
        </mxCell>
        <mxCell id="pazXSuaWY3IOzkwAcKcH-218" value="" style="triangle;whiteSpace=wrap;html=1;rotation=90;" vertex="1" parent="1">
          <mxGeometry x="450" y="10" width="20" height="30" as="geometry" />
        </mxCell>
        <mxCell id="pazXSuaWY3IOzkwAcKcH-345" style="edgeStyle=orthogonalEdgeStyle;rounded=0;orthogonalLoop=1;jettySize=auto;html=1;exitX=1;exitY=0.5;exitDx=0;exitDy=0;entryX=1;entryY=0.5;entryDx=0;entryDy=0;" edge="1" parent="1" source="pazXSuaWY3IOzkwAcKcH-220" target="pazXSuaWY3IOzkwAcKcH-138">
          <mxGeometry relative="1" as="geometry">
            <Array as="points">
              <mxPoint x="220" y="50" />
              <mxPoint x="210" y="50" />
              <mxPoint x="210" y="440" />
            </Array>
          </mxGeometry>
        </mxCell>
        <mxCell id="pazXSuaWY3IOzkwAcKcH-220" value="" style="triangle;whiteSpace=wrap;html=1;rotation=90;" vertex="1" parent="1">
          <mxGeometry x="210" y="10" width="20" height="30" as="geometry" />
        </mxCell>
        <mxCell id="pazXSuaWY3IOzkwAcKcH-389" style="edgeStyle=orthogonalEdgeStyle;rounded=0;orthogonalLoop=1;jettySize=auto;html=1;exitX=1;exitY=0.5;exitDx=0;exitDy=0;entryX=0;entryY=0.5;entryDx=0;entryDy=0;" edge="1" parent="1" source="pazXSuaWY3IOzkwAcKcH-222" target="pazXSuaWY3IOzkwAcKcH-319">
          <mxGeometry relative="1" as="geometry">
            <Array as="points">
              <mxPoint x="400" y="50" />
              <mxPoint x="390" y="50" />
              <mxPoint x="390" y="650" />
              <mxPoint x="1360" y="650" />
              <mxPoint x="1360" y="640" />
            </Array>
          </mxGeometry>
        </mxCell>
        <mxCell id="pazXSuaWY3IOzkwAcKcH-222" value="" style="triangle;whiteSpace=wrap;html=1;rotation=90;" vertex="1" parent="1">
          <mxGeometry x="390" y="10" width="20" height="30" as="geometry" />
        </mxCell>
        <mxCell id="pazXSuaWY3IOzkwAcKcH-329" style="edgeStyle=orthogonalEdgeStyle;rounded=0;orthogonalLoop=1;jettySize=auto;html=1;exitX=1;exitY=0.5;exitDx=0;exitDy=0;entryX=1;entryY=0.5;entryDx=0;entryDy=0;" edge="1" parent="1" source="pazXSuaWY3IOzkwAcKcH-224" target="pazXSuaWY3IOzkwAcKcH-153">
          <mxGeometry relative="1" as="geometry">
            <Array as="points">
              <mxPoint x="340" y="50" />
              <mxPoint x="330" y="50" />
              <mxPoint x="330" y="120" />
            </Array>
          </mxGeometry>
        </mxCell>
        <mxCell id="pazXSuaWY3IOzkwAcKcH-224" value="" style="triangle;whiteSpace=wrap;html=1;rotation=90;" vertex="1" parent="1">
          <mxGeometry x="330" y="10" width="20" height="30" as="geometry" />
        </mxCell>
        <mxCell id="pazXSuaWY3IOzkwAcKcH-337" style="edgeStyle=orthogonalEdgeStyle;rounded=0;orthogonalLoop=1;jettySize=auto;html=1;exitX=1;exitY=0.5;exitDx=0;exitDy=0;entryX=1;entryY=0.5;entryDx=0;entryDy=0;" edge="1" parent="1" source="pazXSuaWY3IOzkwAcKcH-226" target="pazXSuaWY3IOzkwAcKcH-146">
          <mxGeometry relative="1" as="geometry">
            <Array as="points">
              <mxPoint x="280" y="50" />
              <mxPoint x="270" y="50" />
              <mxPoint x="270" y="280" />
            </Array>
          </mxGeometry>
        </mxCell>
        <mxCell id="pazXSuaWY3IOzkwAcKcH-226" value="" style="triangle;whiteSpace=wrap;html=1;rotation=90;" vertex="1" parent="1">
          <mxGeometry x="270" y="10" width="20" height="30" as="geometry" />
        </mxCell>
        <mxCell id="pazXSuaWY3IOzkwAcKcH-354" style="edgeStyle=orthogonalEdgeStyle;rounded=0;orthogonalLoop=1;jettySize=auto;html=1;exitX=1;exitY=0.5;exitDx=0;exitDy=0;entryX=1;entryY=0.5;entryDx=0;entryDy=0;" edge="1" parent="1" source="pazXSuaWY3IOzkwAcKcH-228" target="pazXSuaWY3IOzkwAcKcH-131">
          <mxGeometry relative="1" as="geometry">
            <Array as="points">
              <mxPoint x="160" y="50" />
              <mxPoint x="150" y="50" />
              <mxPoint x="150" y="600" />
            </Array>
          </mxGeometry>
        </mxCell>
        <mxCell id="pazXSuaWY3IOzkwAcKcH-228" value="" style="triangle;whiteSpace=wrap;html=1;rotation=90;" vertex="1" parent="1">
          <mxGeometry x="150" y="10" width="20" height="30" as="geometry" />
        </mxCell>
        <mxCell id="pazXSuaWY3IOzkwAcKcH-362" style="edgeStyle=orthogonalEdgeStyle;rounded=0;orthogonalLoop=1;jettySize=auto;html=1;exitX=1;exitY=0.5;exitDx=0;exitDy=0;entryX=0;entryY=0.5;entryDx=0;entryDy=0;" edge="1" parent="1" source="pazXSuaWY3IOzkwAcKcH-230" target="pazXSuaWY3IOzkwAcKcH-181">
          <mxGeometry relative="1" as="geometry">
            <Array as="points">
              <mxPoint x="100" y="50" />
              <mxPoint x="90" y="50" />
              <mxPoint x="90" y="130" />
              <mxPoint x="1360" y="130" />
              <mxPoint x="1360" y="120" />
            </Array>
          </mxGeometry>
        </mxCell>
        <mxCell id="pazXSuaWY3IOzkwAcKcH-230" value="" style="triangle;whiteSpace=wrap;html=1;rotation=90;" vertex="1" parent="1">
          <mxGeometry x="90" y="10" width="20" height="30" as="geometry" />
        </mxCell>
        <mxCell id="pazXSuaWY3IOzkwAcKcH-370" style="edgeStyle=orthogonalEdgeStyle;rounded=0;orthogonalLoop=1;jettySize=auto;html=1;exitX=1;exitY=0.5;exitDx=0;exitDy=0;entryX=0;entryY=0.5;entryDx=0;entryDy=0;" edge="1" parent="1" source="pazXSuaWY3IOzkwAcKcH-232" target="pazXSuaWY3IOzkwAcKcH-174">
          <mxGeometry relative="1" as="geometry">
            <Array as="points">
              <mxPoint x="40" y="50" />
              <mxPoint x="30" y="50" />
              <mxPoint x="30" y="290" />
              <mxPoint x="1360" y="290" />
              <mxPoint x="1360" y="280" />
            </Array>
          </mxGeometry>
        </mxCell>
        <mxCell id="pazXSuaWY3IOzkwAcKcH-232" value="" style="triangle;whiteSpace=wrap;html=1;rotation=90;" vertex="1" parent="1">
          <mxGeometry x="30" y="10" width="20" height="30" as="geometry" />
        </mxCell>
        <mxCell id="pazXSuaWY3IOzkwAcKcH-378" style="edgeStyle=orthogonalEdgeStyle;rounded=0;orthogonalLoop=1;jettySize=auto;html=1;exitX=1;exitY=0.5;exitDx=0;exitDy=0;entryX=0;entryY=0.5;entryDx=0;entryDy=0;" edge="1" parent="1" source="pazXSuaWY3IOzkwAcKcH-234" target="pazXSuaWY3IOzkwAcKcH-166">
          <mxGeometry relative="1" as="geometry">
            <Array as="points">
              <mxPoint x="-20" y="50" />
              <mxPoint x="-30" y="50" />
              <mxPoint x="-30" y="450" />
              <mxPoint x="1360" y="450" />
              <mxPoint x="1360" y="440" />
            </Array>
          </mxGeometry>
        </mxCell>
        <mxCell id="pazXSuaWY3IOzkwAcKcH-234" value="" style="triangle;whiteSpace=wrap;html=1;rotation=90;" vertex="1" parent="1">
          <mxGeometry x="-30" y="10" width="20" height="30" as="geometry" />
        </mxCell>
        <mxCell id="pazXSuaWY3IOzkwAcKcH-387" style="edgeStyle=orthogonalEdgeStyle;rounded=0;orthogonalLoop=1;jettySize=auto;html=1;exitX=1;exitY=0.5;exitDx=0;exitDy=0;entryX=0;entryY=0.5;entryDx=0;entryDy=0;" edge="1" parent="1" source="pazXSuaWY3IOzkwAcKcH-236" target="pazXSuaWY3IOzkwAcKcH-159">
          <mxGeometry relative="1" as="geometry">
            <Array as="points">
              <mxPoint x="-80" y="50" />
              <mxPoint x="-90" y="50" />
              <mxPoint x="-90" y="610" />
              <mxPoint x="1360" y="610" />
              <mxPoint x="1360" y="600" />
            </Array>
          </mxGeometry>
        </mxCell>
        <mxCell id="pazXSuaWY3IOzkwAcKcH-236" value="" style="triangle;whiteSpace=wrap;html=1;rotation=90;" vertex="1" parent="1">
          <mxGeometry x="-90" y="10" width="20" height="30" as="geometry" />
        </mxCell>
        <mxCell id="pazXSuaWY3IOzkwAcKcH-326" style="edgeStyle=orthogonalEdgeStyle;rounded=0;orthogonalLoop=1;jettySize=auto;html=1;exitX=1;exitY=0.5;exitDx=0;exitDy=0;entryX=1;entryY=0.5;entryDx=0;entryDy=0;" edge="1" parent="1" source="pazXSuaWY3IOzkwAcKcH-238" target="pazXSuaWY3IOzkwAcKcH-156">
          <mxGeometry relative="1" as="geometry">
            <Array as="points">
              <mxPoint x="-140" y="50" />
              <mxPoint x="-150" y="50" />
              <mxPoint x="-150" y="80" />
            </Array>
          </mxGeometry>
        </mxCell>
        <mxCell id="pazXSuaWY3IOzkwAcKcH-238" value="" style="triangle;whiteSpace=wrap;html=1;rotation=90;" vertex="1" parent="1">
          <mxGeometry x="-150" y="10" width="20" height="30" as="geometry" />
        </mxCell>
        <mxCell id="pazXSuaWY3IOzkwAcKcH-335" style="edgeStyle=orthogonalEdgeStyle;rounded=0;orthogonalLoop=1;jettySize=auto;html=1;exitX=1;exitY=0.5;exitDx=0;exitDy=0;entryX=1;entryY=0.5;entryDx=0;entryDy=0;" edge="1" parent="1" source="pazXSuaWY3IOzkwAcKcH-240" target="pazXSuaWY3IOzkwAcKcH-148">
          <mxGeometry relative="1" as="geometry">
            <Array as="points">
              <mxPoint x="-200" y="50" />
              <mxPoint x="-210" y="50" />
              <mxPoint x="-210" y="240" />
            </Array>
          </mxGeometry>
        </mxCell>
        <mxCell id="pazXSuaWY3IOzkwAcKcH-240" value="" style="triangle;whiteSpace=wrap;html=1;rotation=90;" vertex="1" parent="1">
          <mxGeometry x="-210" y="10" width="20" height="30" as="geometry" />
        </mxCell>
        <mxCell id="pazXSuaWY3IOzkwAcKcH-343" style="edgeStyle=orthogonalEdgeStyle;rounded=0;orthogonalLoop=1;jettySize=auto;html=1;exitX=1;exitY=0.5;exitDx=0;exitDy=0;entryX=1;entryY=0.5;entryDx=0;entryDy=0;" edge="1" parent="1" source="pazXSuaWY3IOzkwAcKcH-242" target="pazXSuaWY3IOzkwAcKcH-140">
          <mxGeometry relative="1" as="geometry">
            <Array as="points">
              <mxPoint x="-260" y="50" />
              <mxPoint x="-270" y="50" />
              <mxPoint x="-270" y="400" />
            </Array>
          </mxGeometry>
        </mxCell>
        <mxCell id="pazXSuaWY3IOzkwAcKcH-242" value="" style="triangle;whiteSpace=wrap;html=1;rotation=90;" vertex="1" parent="1">
          <mxGeometry x="-270" y="10" width="20" height="30" as="geometry" />
        </mxCell>
        <mxCell id="pazXSuaWY3IOzkwAcKcH-352" style="edgeStyle=orthogonalEdgeStyle;rounded=0;orthogonalLoop=1;jettySize=auto;html=1;exitX=1;exitY=0.5;exitDx=0;exitDy=0;entryX=1;entryY=0.5;entryDx=0;entryDy=0;" edge="1" parent="1" source="pazXSuaWY3IOzkwAcKcH-244" target="pazXSuaWY3IOzkwAcKcH-130">
          <mxGeometry relative="1" as="geometry">
            <Array as="points">
              <mxPoint x="-320" y="50" />
              <mxPoint x="-330" y="50" />
              <mxPoint x="-330" y="560" />
            </Array>
          </mxGeometry>
        </mxCell>
        <mxCell id="pazXSuaWY3IOzkwAcKcH-244" value="" style="triangle;whiteSpace=wrap;html=1;rotation=90;" vertex="1" parent="1">
          <mxGeometry x="-330" y="10" width="20" height="30" as="geometry" />
        </mxCell>
        <mxCell id="pazXSuaWY3IOzkwAcKcH-360" style="edgeStyle=orthogonalEdgeStyle;rounded=0;orthogonalLoop=1;jettySize=auto;html=1;exitX=1;exitY=0.5;exitDx=0;exitDy=0;entryX=0;entryY=0.5;entryDx=0;entryDy=0;" edge="1" parent="1" source="pazXSuaWY3IOzkwAcKcH-246" target="pazXSuaWY3IOzkwAcKcH-184">
          <mxGeometry relative="1" as="geometry">
            <Array as="points">
              <mxPoint x="-380" y="50" />
              <mxPoint x="-390" y="50" />
              <mxPoint x="-390" y="90" />
              <mxPoint x="1360" y="90" />
              <mxPoint x="1360" y="80" />
            </Array>
          </mxGeometry>
        </mxCell>
        <mxCell id="pazXSuaWY3IOzkwAcKcH-246" value="" style="triangle;whiteSpace=wrap;html=1;rotation=90;" vertex="1" parent="1">
          <mxGeometry x="-390" y="10" width="20" height="30" as="geometry" />
        </mxCell>
        <mxCell id="pazXSuaWY3IOzkwAcKcH-368" style="edgeStyle=orthogonalEdgeStyle;rounded=0;orthogonalLoop=1;jettySize=auto;html=1;exitX=1;exitY=0.5;exitDx=0;exitDy=0;entryX=0;entryY=0.5;entryDx=0;entryDy=0;" edge="1" parent="1" source="pazXSuaWY3IOzkwAcKcH-248" target="pazXSuaWY3IOzkwAcKcH-176">
          <mxGeometry relative="1" as="geometry">
            <Array as="points">
              <mxPoint x="-440" y="50" />
              <mxPoint x="-450" y="50" />
              <mxPoint x="-450" y="250" />
              <mxPoint x="1360" y="250" />
              <mxPoint x="1360" y="240" />
            </Array>
          </mxGeometry>
        </mxCell>
        <mxCell id="pazXSuaWY3IOzkwAcKcH-248" value="" style="triangle;whiteSpace=wrap;html=1;rotation=90;" vertex="1" parent="1">
          <mxGeometry x="-450" y="10" width="20" height="30" as="geometry" />
        </mxCell>
        <mxCell id="pazXSuaWY3IOzkwAcKcH-383" style="edgeStyle=orthogonalEdgeStyle;rounded=0;orthogonalLoop=1;jettySize=auto;html=1;exitX=1;exitY=0.5;exitDx=0;exitDy=0;entryX=0;entryY=0.5;entryDx=0;entryDy=0;" edge="1" parent="1" source="pazXSuaWY3IOzkwAcKcH-250" target="pazXSuaWY3IOzkwAcKcH-160">
          <mxGeometry relative="1" as="geometry">
            <Array as="points">
              <mxPoint x="-560" y="550" />
              <mxPoint x="1360" y="550" />
              <mxPoint x="1360" y="540" />
            </Array>
          </mxGeometry>
        </mxCell>
        <mxCell id="pazXSuaWY3IOzkwAcKcH-250" value="" style="triangle;whiteSpace=wrap;html=1;rotation=-90;" vertex="1" parent="1">
          <mxGeometry x="-570" y="720" width="20" height="30" as="geometry" />
        </mxCell>
        <mxCell id="pazXSuaWY3IOzkwAcKcH-375" style="edgeStyle=orthogonalEdgeStyle;rounded=0;orthogonalLoop=1;jettySize=auto;html=1;exitX=1;exitY=0.5;exitDx=0;exitDy=0;entryX=0;entryY=0.5;entryDx=0;entryDy=0;" edge="1" parent="1" source="pazXSuaWY3IOzkwAcKcH-252" target="pazXSuaWY3IOzkwAcKcH-169">
          <mxGeometry relative="1" as="geometry">
            <Array as="points">
              <mxPoint x="-500" y="390" />
              <mxPoint x="1360" y="390" />
              <mxPoint x="1360" y="380" />
            </Array>
          </mxGeometry>
        </mxCell>
        <mxCell id="pazXSuaWY3IOzkwAcKcH-252" value="" style="triangle;whiteSpace=wrap;html=1;rotation=-90;" vertex="1" parent="1">
          <mxGeometry x="-510" y="720" width="20" height="30" as="geometry" />
        </mxCell>
        <mxCell id="pazXSuaWY3IOzkwAcKcH-355" style="edgeStyle=orthogonalEdgeStyle;rounded=0;orthogonalLoop=1;jettySize=auto;html=1;exitX=1;exitY=0.5;exitDx=0;exitDy=0;entryX=1;entryY=0.5;entryDx=0;entryDy=0;" edge="1" parent="1" source="pazXSuaWY3IOzkwAcKcH-254" target="pazXSuaWY3IOzkwAcKcH-316">
          <mxGeometry relative="1" as="geometry" />
        </mxCell>
        <mxCell id="pazXSuaWY3IOzkwAcKcH-254" value="" style="triangle;whiteSpace=wrap;html=1;rotation=-90;" vertex="1" parent="1">
          <mxGeometry x="630" y="720" width="20" height="30" as="geometry" />
        </mxCell>
        <mxCell id="pazXSuaWY3IOzkwAcKcH-347" style="edgeStyle=orthogonalEdgeStyle;rounded=0;orthogonalLoop=1;jettySize=auto;html=1;exitX=1;exitY=0.5;exitDx=0;exitDy=0;entryX=1;entryY=0.5;entryDx=0;entryDy=0;" edge="1" parent="1" source="pazXSuaWY3IOzkwAcKcH-256" target="pazXSuaWY3IOzkwAcKcH-137">
          <mxGeometry relative="1" as="geometry" />
        </mxCell>
        <mxCell id="pazXSuaWY3IOzkwAcKcH-256" value="" style="triangle;whiteSpace=wrap;html=1;rotation=-90;" vertex="1" parent="1">
          <mxGeometry x="690" y="720" width="20" height="30" as="geometry" />
        </mxCell>
        <mxCell id="pazXSuaWY3IOzkwAcKcH-338" style="edgeStyle=orthogonalEdgeStyle;rounded=0;orthogonalLoop=1;jettySize=auto;html=1;exitX=1;exitY=0.5;exitDx=0;exitDy=0;entryX=1;entryY=0.5;entryDx=0;entryDy=0;" edge="1" parent="1" source="pazXSuaWY3IOzkwAcKcH-258" target="pazXSuaWY3IOzkwAcKcH-145">
          <mxGeometry relative="1" as="geometry" />
        </mxCell>
        <mxCell id="pazXSuaWY3IOzkwAcKcH-258" value="" style="triangle;whiteSpace=wrap;html=1;rotation=-90;" vertex="1" parent="1">
          <mxGeometry x="750" y="720" width="20" height="30" as="geometry" />
        </mxCell>
        <mxCell id="pazXSuaWY3IOzkwAcKcH-330" style="edgeStyle=orthogonalEdgeStyle;rounded=0;orthogonalLoop=1;jettySize=auto;html=1;exitX=1;exitY=0.5;exitDx=0;exitDy=0;entryX=1;entryY=0.5;entryDx=0;entryDy=0;" edge="1" parent="1" source="pazXSuaWY3IOzkwAcKcH-260" target="pazXSuaWY3IOzkwAcKcH-154">
          <mxGeometry relative="1" as="geometry" />
        </mxCell>
        <mxCell id="pazXSuaWY3IOzkwAcKcH-260" value="" style="triangle;whiteSpace=wrap;html=1;rotation=-90;" vertex="1" parent="1">
          <mxGeometry x="810" y="720" width="20" height="30" as="geometry" />
        </mxCell>
        <mxCell id="pazXSuaWY3IOzkwAcKcH-332" style="edgeStyle=orthogonalEdgeStyle;rounded=0;orthogonalLoop=1;jettySize=auto;html=1;exitX=1;exitY=0.5;exitDx=0;exitDy=0;entryX=1;entryY=0.5;entryDx=0;entryDy=0;" edge="1" parent="1" source="pazXSuaWY3IOzkwAcKcH-262" target="pazXSuaWY3IOzkwAcKcH-151">
          <mxGeometry relative="1" as="geometry" />
        </mxCell>
        <mxCell id="pazXSuaWY3IOzkwAcKcH-262" value="" style="triangle;whiteSpace=wrap;html=1;rotation=-90;" vertex="1" parent="1">
          <mxGeometry x="1290" y="720" width="20" height="30" as="geometry" />
        </mxCell>
        <mxCell id="pazXSuaWY3IOzkwAcKcH-340" style="edgeStyle=orthogonalEdgeStyle;rounded=0;orthogonalLoop=1;jettySize=auto;html=1;exitX=1;exitY=0.5;exitDx=0;exitDy=0;entryX=1;entryY=0.5;entryDx=0;entryDy=0;" edge="1" parent="1" source="pazXSuaWY3IOzkwAcKcH-264" target="pazXSuaWY3IOzkwAcKcH-143">
          <mxGeometry relative="1" as="geometry" />
        </mxCell>
        <mxCell id="pazXSuaWY3IOzkwAcKcH-264" value="" style="triangle;whiteSpace=wrap;html=1;rotation=-90;" vertex="1" parent="1">
          <mxGeometry x="1230" y="720" width="20" height="30" as="geometry" />
        </mxCell>
        <mxCell id="pazXSuaWY3IOzkwAcKcH-349" style="edgeStyle=orthogonalEdgeStyle;rounded=0;orthogonalLoop=1;jettySize=auto;html=1;exitX=1;exitY=0.5;exitDx=0;exitDy=0;entryX=1;entryY=0.5;entryDx=0;entryDy=0;" edge="1" parent="1" source="pazXSuaWY3IOzkwAcKcH-266" target="pazXSuaWY3IOzkwAcKcH-135">
          <mxGeometry relative="1" as="geometry" />
        </mxCell>
        <mxCell id="pazXSuaWY3IOzkwAcKcH-266" value="" style="triangle;whiteSpace=wrap;html=1;rotation=-90;" vertex="1" parent="1">
          <mxGeometry x="1170" y="720" width="20" height="30" as="geometry" />
        </mxCell>
        <mxCell id="pazXSuaWY3IOzkwAcKcH-357" style="edgeStyle=orthogonalEdgeStyle;rounded=0;orthogonalLoop=1;jettySize=auto;html=1;exitX=1;exitY=0.5;exitDx=0;exitDy=0;entryX=1;entryY=0.5;entryDx=0;entryDy=0;" edge="1" parent="1" source="pazXSuaWY3IOzkwAcKcH-268" target="pazXSuaWY3IOzkwAcKcH-314">
          <mxGeometry relative="1" as="geometry" />
        </mxCell>
        <mxCell id="pazXSuaWY3IOzkwAcKcH-268" value="" style="triangle;whiteSpace=wrap;html=1;rotation=-90;" vertex="1" parent="1">
          <mxGeometry x="1110" y="720" width="20" height="30" as="geometry" />
        </mxCell>
        <mxCell id="pazXSuaWY3IOzkwAcKcH-365" style="edgeStyle=orthogonalEdgeStyle;rounded=0;orthogonalLoop=1;jettySize=auto;html=1;exitX=1;exitY=0.5;exitDx=0;exitDy=0;entryX=0;entryY=0.5;entryDx=0;entryDy=0;" edge="1" parent="1" source="pazXSuaWY3IOzkwAcKcH-270" target="pazXSuaWY3IOzkwAcKcH-179">
          <mxGeometry relative="1" as="geometry">
            <Array as="points">
              <mxPoint x="1060" y="190" />
              <mxPoint x="1360" y="190" />
              <mxPoint x="1360" y="180" />
            </Array>
          </mxGeometry>
        </mxCell>
        <mxCell id="pazXSuaWY3IOzkwAcKcH-270" value="" style="triangle;whiteSpace=wrap;html=1;rotation=-90;" vertex="1" parent="1">
          <mxGeometry x="1050" y="720" width="20" height="30" as="geometry" />
        </mxCell>
        <mxCell id="pazXSuaWY3IOzkwAcKcH-373" style="edgeStyle=orthogonalEdgeStyle;rounded=0;orthogonalLoop=1;jettySize=auto;html=1;exitX=1;exitY=0.5;exitDx=0;exitDy=0;entryX=0;entryY=0.5;entryDx=0;entryDy=0;" edge="1" parent="1" source="pazXSuaWY3IOzkwAcKcH-272" target="pazXSuaWY3IOzkwAcKcH-171">
          <mxGeometry relative="1" as="geometry">
            <Array as="points">
              <mxPoint x="1000" y="350" />
              <mxPoint x="1360" y="350" />
              <mxPoint x="1360" y="340" />
            </Array>
          </mxGeometry>
        </mxCell>
        <mxCell id="pazXSuaWY3IOzkwAcKcH-272" value="" style="triangle;whiteSpace=wrap;html=1;rotation=-90;" vertex="1" parent="1">
          <mxGeometry x="990" y="720" width="20" height="30" as="geometry" />
        </mxCell>
        <mxCell id="pazXSuaWY3IOzkwAcKcH-381" style="edgeStyle=orthogonalEdgeStyle;rounded=0;orthogonalLoop=1;jettySize=auto;html=1;exitX=1;exitY=0.5;exitDx=0;exitDy=0;entryX=0;entryY=0.5;entryDx=0;entryDy=0;" edge="1" parent="1" source="pazXSuaWY3IOzkwAcKcH-274" target="pazXSuaWY3IOzkwAcKcH-163">
          <mxGeometry relative="1" as="geometry">
            <Array as="points">
              <mxPoint x="940" y="510" />
              <mxPoint x="1360" y="510" />
              <mxPoint x="1360" y="500" />
            </Array>
          </mxGeometry>
        </mxCell>
        <mxCell id="pazXSuaWY3IOzkwAcKcH-274" value="" style="triangle;whiteSpace=wrap;html=1;rotation=-90;" vertex="1" parent="1">
          <mxGeometry x="930" y="720" width="20" height="30" as="geometry" />
        </mxCell>
        <mxCell id="pazXSuaWY3IOzkwAcKcH-390" style="edgeStyle=orthogonalEdgeStyle;rounded=0;orthogonalLoop=1;jettySize=auto;html=1;exitX=1;exitY=0.5;exitDx=0;exitDy=0;entryX=0;entryY=0.5;entryDx=0;entryDy=0;" edge="1" parent="1" source="pazXSuaWY3IOzkwAcKcH-276" target="pazXSuaWY3IOzkwAcKcH-318">
          <mxGeometry relative="1" as="geometry">
            <Array as="points">
              <mxPoint x="880" y="670" />
              <mxPoint x="1360" y="670" />
              <mxPoint x="1360" y="660" />
            </Array>
          </mxGeometry>
        </mxCell>
        <mxCell id="pazXSuaWY3IOzkwAcKcH-276" value="" style="triangle;whiteSpace=wrap;html=1;rotation=-90;" vertex="1" parent="1">
          <mxGeometry x="870" y="720" width="20" height="30" as="geometry" />
        </mxCell>
        <mxCell id="pazXSuaWY3IOzkwAcKcH-363" style="edgeStyle=orthogonalEdgeStyle;rounded=0;orthogonalLoop=1;jettySize=auto;html=1;exitX=1;exitY=0.5;exitDx=0;exitDy=0;entryX=0;entryY=0.5;entryDx=0;entryDy=0;" edge="1" parent="1" source="pazXSuaWY3IOzkwAcKcH-278" target="pazXSuaWY3IOzkwAcKcH-182">
          <mxGeometry relative="1" as="geometry">
            <Array as="points">
              <mxPoint x="580" y="150" />
              <mxPoint x="1360" y="150" />
              <mxPoint x="1360" y="140" />
            </Array>
          </mxGeometry>
        </mxCell>
        <mxCell id="pazXSuaWY3IOzkwAcKcH-278" value="" style="triangle;whiteSpace=wrap;html=1;rotation=-90;" vertex="1" parent="1">
          <mxGeometry x="570" y="720" width="20" height="30" as="geometry" />
        </mxCell>
        <mxCell id="pazXSuaWY3IOzkwAcKcH-371" style="edgeStyle=orthogonalEdgeStyle;rounded=0;orthogonalLoop=1;jettySize=auto;html=1;exitX=1;exitY=0.5;exitDx=0;exitDy=0;entryX=0;entryY=0.5;entryDx=0;entryDy=0;" edge="1" parent="1" source="pazXSuaWY3IOzkwAcKcH-280" target="pazXSuaWY3IOzkwAcKcH-173">
          <mxGeometry relative="1" as="geometry">
            <Array as="points">
              <mxPoint x="520" y="310" />
              <mxPoint x="1360" y="310" />
              <mxPoint x="1360" y="300" />
            </Array>
          </mxGeometry>
        </mxCell>
        <mxCell id="pazXSuaWY3IOzkwAcKcH-280" value="" style="triangle;whiteSpace=wrap;html=1;rotation=-180;direction=south;" vertex="1" parent="1">
          <mxGeometry x="505" y="725" width="30" height="20" as="geometry" />
        </mxCell>
        <mxCell id="pazXSuaWY3IOzkwAcKcH-379" style="edgeStyle=orthogonalEdgeStyle;rounded=0;orthogonalLoop=1;jettySize=auto;html=1;exitX=1;exitY=0.5;exitDx=0;exitDy=0;entryX=0;entryY=0.5;entryDx=0;entryDy=0;" edge="1" parent="1" source="pazXSuaWY3IOzkwAcKcH-282" target="pazXSuaWY3IOzkwAcKcH-165">
          <mxGeometry relative="1" as="geometry">
            <Array as="points">
              <mxPoint x="460" y="470" />
              <mxPoint x="1360" y="470" />
              <mxPoint x="1360" y="460" />
            </Array>
          </mxGeometry>
        </mxCell>
        <mxCell id="pazXSuaWY3IOzkwAcKcH-282" value="" style="triangle;whiteSpace=wrap;html=1;rotation=-90;" vertex="1" parent="1">
          <mxGeometry x="450" y="720" width="20" height="30" as="geometry" />
        </mxCell>
        <mxCell id="pazXSuaWY3IOzkwAcKcH-344" style="edgeStyle=orthogonalEdgeStyle;rounded=0;orthogonalLoop=1;jettySize=auto;html=1;exitX=1;exitY=0.5;exitDx=0;exitDy=0;entryX=1;entryY=0.5;entryDx=0;entryDy=0;" edge="1" parent="1" source="pazXSuaWY3IOzkwAcKcH-284" target="pazXSuaWY3IOzkwAcKcH-139">
          <mxGeometry relative="1" as="geometry" />
        </mxCell>
        <mxCell id="pazXSuaWY3IOzkwAcKcH-284" value="" style="triangle;whiteSpace=wrap;html=1;rotation=-90;" vertex="1" parent="1">
          <mxGeometry x="210" y="720" width="20" height="30" as="geometry" />
        </mxCell>
        <mxCell id="pazXSuaWY3IOzkwAcKcH-388" style="edgeStyle=orthogonalEdgeStyle;rounded=0;orthogonalLoop=1;jettySize=auto;html=1;exitX=1;exitY=0.5;exitDx=0;exitDy=0;entryX=0;entryY=0.5;entryDx=0;entryDy=0;" edge="1" parent="1" source="pazXSuaWY3IOzkwAcKcH-286" target="pazXSuaWY3IOzkwAcKcH-320">
          <mxGeometry relative="1" as="geometry">
            <Array as="points">
              <mxPoint x="400" y="630" />
              <mxPoint x="1360" y="630" />
              <mxPoint x="1360" y="620" />
            </Array>
          </mxGeometry>
        </mxCell>
        <mxCell id="pazXSuaWY3IOzkwAcKcH-286" value="" style="triangle;whiteSpace=wrap;html=1;rotation=90;direction=west;" vertex="1" parent="1">
          <mxGeometry x="390" y="720" width="20" height="30" as="geometry" />
        </mxCell>
        <mxCell id="pazXSuaWY3IOzkwAcKcH-327" style="edgeStyle=orthogonalEdgeStyle;rounded=0;orthogonalLoop=1;jettySize=auto;html=1;exitX=1;exitY=0.5;exitDx=0;exitDy=0;entryX=1;entryY=0.5;entryDx=0;entryDy=0;" edge="1" parent="1" source="pazXSuaWY3IOzkwAcKcH-288" target="pazXSuaWY3IOzkwAcKcH-155">
          <mxGeometry relative="1" as="geometry" />
        </mxCell>
        <mxCell id="pazXSuaWY3IOzkwAcKcH-288" value="" style="triangle;whiteSpace=wrap;html=1;rotation=-90;" vertex="1" parent="1">
          <mxGeometry x="330" y="720" width="20" height="30" as="geometry" />
        </mxCell>
        <mxCell id="pazXSuaWY3IOzkwAcKcH-336" style="edgeStyle=orthogonalEdgeStyle;rounded=0;orthogonalLoop=1;jettySize=auto;html=1;exitX=1;exitY=0.5;exitDx=0;exitDy=0;entryX=1;entryY=0.5;entryDx=0;entryDy=0;" edge="1" parent="1" source="pazXSuaWY3IOzkwAcKcH-290" target="pazXSuaWY3IOzkwAcKcH-147">
          <mxGeometry relative="1" as="geometry" />
        </mxCell>
        <mxCell id="pazXSuaWY3IOzkwAcKcH-290" value="" style="triangle;whiteSpace=wrap;html=1;rotation=-90;" vertex="1" parent="1">
          <mxGeometry x="270" y="720" width="20" height="30" as="geometry" />
        </mxCell>
        <mxCell id="pazXSuaWY3IOzkwAcKcH-353" style="edgeStyle=orthogonalEdgeStyle;rounded=0;orthogonalLoop=1;jettySize=auto;html=1;exitX=1;exitY=0.5;exitDx=0;exitDy=0;entryX=1;entryY=0.5;entryDx=0;entryDy=0;" edge="1" parent="1" source="pazXSuaWY3IOzkwAcKcH-292" target="pazXSuaWY3IOzkwAcKcH-133">
          <mxGeometry relative="1" as="geometry" />
        </mxCell>
        <mxCell id="pazXSuaWY3IOzkwAcKcH-292" value="" style="triangle;whiteSpace=wrap;html=1;rotation=-90;" vertex="1" parent="1">
          <mxGeometry x="150" y="720" width="20" height="30" as="geometry" />
        </mxCell>
        <mxCell id="pazXSuaWY3IOzkwAcKcH-361" style="edgeStyle=orthogonalEdgeStyle;rounded=0;orthogonalLoop=1;jettySize=auto;html=1;exitX=1;exitY=0.5;exitDx=0;exitDy=0;entryX=0;entryY=0.5;entryDx=0;entryDy=0;" edge="1" parent="1" source="pazXSuaWY3IOzkwAcKcH-294" target="pazXSuaWY3IOzkwAcKcH-183">
          <mxGeometry relative="1" as="geometry">
            <Array as="points">
              <mxPoint x="100" y="110" />
              <mxPoint x="1360" y="110" />
              <mxPoint x="1360" y="100" />
            </Array>
          </mxGeometry>
        </mxCell>
        <mxCell id="pazXSuaWY3IOzkwAcKcH-294" value="" style="triangle;whiteSpace=wrap;html=1;rotation=-90;" vertex="1" parent="1">
          <mxGeometry x="90" y="720" width="20" height="30" as="geometry" />
        </mxCell>
        <mxCell id="pazXSuaWY3IOzkwAcKcH-369" style="edgeStyle=orthogonalEdgeStyle;rounded=0;orthogonalLoop=1;jettySize=auto;html=1;exitX=1;exitY=0.5;exitDx=0;exitDy=0;entryX=0;entryY=0.5;entryDx=0;entryDy=0;" edge="1" parent="1" source="pazXSuaWY3IOzkwAcKcH-296" target="pazXSuaWY3IOzkwAcKcH-175">
          <mxGeometry relative="1" as="geometry">
            <Array as="points">
              <mxPoint x="40" y="270" />
              <mxPoint x="1360" y="270" />
              <mxPoint x="1360" y="260" />
            </Array>
          </mxGeometry>
        </mxCell>
        <mxCell id="pazXSuaWY3IOzkwAcKcH-296" value="" style="triangle;whiteSpace=wrap;html=1;rotation=-90;" vertex="1" parent="1">
          <mxGeometry x="30" y="720" width="20" height="30" as="geometry" />
        </mxCell>
        <mxCell id="pazXSuaWY3IOzkwAcKcH-377" style="edgeStyle=orthogonalEdgeStyle;rounded=0;orthogonalLoop=1;jettySize=auto;html=1;exitX=1;exitY=0.5;exitDx=0;exitDy=0;entryX=0;entryY=0.5;entryDx=0;entryDy=0;" edge="1" parent="1" source="pazXSuaWY3IOzkwAcKcH-298" target="pazXSuaWY3IOzkwAcKcH-167">
          <mxGeometry relative="1" as="geometry">
            <Array as="points">
              <mxPoint x="-20" y="430" />
              <mxPoint x="1360" y="430" />
              <mxPoint x="1360" y="420" />
            </Array>
          </mxGeometry>
        </mxCell>
        <mxCell id="pazXSuaWY3IOzkwAcKcH-298" value="" style="triangle;whiteSpace=wrap;html=1;rotation=-90;" vertex="1" parent="1">
          <mxGeometry x="-30" y="720" width="20" height="30" as="geometry" />
        </mxCell>
        <mxCell id="pazXSuaWY3IOzkwAcKcH-386" style="edgeStyle=orthogonalEdgeStyle;rounded=0;orthogonalLoop=1;jettySize=auto;html=1;exitX=1;exitY=0.5;exitDx=0;exitDy=0;entryX=0;entryY=0.5;entryDx=0;entryDy=0;" edge="1" parent="1" source="pazXSuaWY3IOzkwAcKcH-300" target="pazXSuaWY3IOzkwAcKcH-161">
          <mxGeometry relative="1" as="geometry">
            <Array as="points">
              <mxPoint x="-80" y="590" />
              <mxPoint x="1360" y="590" />
              <mxPoint x="1360" y="580" />
            </Array>
          </mxGeometry>
        </mxCell>
        <mxCell id="pazXSuaWY3IOzkwAcKcH-300" value="" style="triangle;whiteSpace=wrap;html=1;rotation=-90;" vertex="1" parent="1">
          <mxGeometry x="-90" y="720" width="20" height="30" as="geometry" />
        </mxCell>
        <mxCell id="pazXSuaWY3IOzkwAcKcH-325" style="edgeStyle=orthogonalEdgeStyle;rounded=0;orthogonalLoop=1;jettySize=auto;html=1;exitX=1;exitY=0.5;exitDx=0;exitDy=0;entryX=1;entryY=0.5;entryDx=0;entryDy=0;" edge="1" parent="1" source="pazXSuaWY3IOzkwAcKcH-302" target="pazXSuaWY3IOzkwAcKcH-129">
          <mxGeometry relative="1" as="geometry" />
        </mxCell>
        <mxCell id="pazXSuaWY3IOzkwAcKcH-302" value="" style="triangle;whiteSpace=wrap;html=1;rotation=-90;" vertex="1" parent="1">
          <mxGeometry x="-150" y="720" width="20" height="30" as="geometry" />
        </mxCell>
        <mxCell id="pazXSuaWY3IOzkwAcKcH-334" style="edgeStyle=orthogonalEdgeStyle;rounded=0;orthogonalLoop=1;jettySize=auto;html=1;exitX=1;exitY=0.5;exitDx=0;exitDy=0;entryX=1;entryY=0.5;entryDx=0;entryDy=0;" edge="1" parent="1" source="pazXSuaWY3IOzkwAcKcH-304" target="pazXSuaWY3IOzkwAcKcH-149">
          <mxGeometry relative="1" as="geometry" />
        </mxCell>
        <mxCell id="pazXSuaWY3IOzkwAcKcH-304" value="" style="triangle;whiteSpace=wrap;html=1;rotation=-90;" vertex="1" parent="1">
          <mxGeometry x="-210" y="720" width="20" height="30" as="geometry" />
        </mxCell>
        <mxCell id="pazXSuaWY3IOzkwAcKcH-342" style="edgeStyle=orthogonalEdgeStyle;rounded=0;orthogonalLoop=1;jettySize=auto;html=1;exitX=1;exitY=0.5;exitDx=0;exitDy=0;entryX=1;entryY=0.5;entryDx=0;entryDy=0;" edge="1" parent="1" source="pazXSuaWY3IOzkwAcKcH-306" target="pazXSuaWY3IOzkwAcKcH-141">
          <mxGeometry relative="1" as="geometry" />
        </mxCell>
        <mxCell id="pazXSuaWY3IOzkwAcKcH-306" value="" style="triangle;whiteSpace=wrap;html=1;rotation=-90;" vertex="1" parent="1">
          <mxGeometry x="-270" y="720" width="20" height="30" as="geometry" />
        </mxCell>
        <mxCell id="pazXSuaWY3IOzkwAcKcH-351" style="edgeStyle=orthogonalEdgeStyle;rounded=0;orthogonalLoop=1;jettySize=auto;html=1;exitX=1;exitY=0.5;exitDx=0;exitDy=0;entryX=1;entryY=0.5;entryDx=0;entryDy=0;" edge="1" parent="1" source="pazXSuaWY3IOzkwAcKcH-308" target="pazXSuaWY3IOzkwAcKcH-132">
          <mxGeometry relative="1" as="geometry" />
        </mxCell>
        <mxCell id="pazXSuaWY3IOzkwAcKcH-308" value="" style="triangle;whiteSpace=wrap;html=1;rotation=-180;direction=south;" vertex="1" parent="1">
          <mxGeometry x="-335" y="725" width="30" height="20" as="geometry" />
        </mxCell>
        <mxCell id="pazXSuaWY3IOzkwAcKcH-359" style="edgeStyle=orthogonalEdgeStyle;rounded=0;orthogonalLoop=1;jettySize=auto;html=1;exitX=1;exitY=0.5;exitDx=0;exitDy=0;entryX=0;entryY=0.5;entryDx=0;entryDy=0;" edge="1" parent="1" source="pazXSuaWY3IOzkwAcKcH-310" target="pazXSuaWY3IOzkwAcKcH-157">
          <mxGeometry relative="1" as="geometry">
            <Array as="points">
              <mxPoint x="-380" y="70" />
              <mxPoint x="1360" y="70" />
              <mxPoint x="1360" y="60" />
            </Array>
          </mxGeometry>
        </mxCell>
        <mxCell id="pazXSuaWY3IOzkwAcKcH-310" value="" style="triangle;whiteSpace=wrap;html=1;rotation=-90;" vertex="1" parent="1">
          <mxGeometry x="-390" y="720" width="20" height="30" as="geometry" />
        </mxCell>
        <mxCell id="pazXSuaWY3IOzkwAcKcH-367" style="edgeStyle=orthogonalEdgeStyle;rounded=0;orthogonalLoop=1;jettySize=auto;html=1;exitX=1;exitY=0.5;exitDx=0;exitDy=0;entryX=0;entryY=0.5;entryDx=0;entryDy=0;" edge="1" parent="1" source="pazXSuaWY3IOzkwAcKcH-312" target="pazXSuaWY3IOzkwAcKcH-177">
          <mxGeometry relative="1" as="geometry">
            <Array as="points">
              <mxPoint x="-440" y="230" />
              <mxPoint x="1360" y="230" />
              <mxPoint x="1360" y="220" />
            </Array>
          </mxGeometry>
        </mxCell>
        <mxCell id="pazXSuaWY3IOzkwAcKcH-312" value="" style="triangle;whiteSpace=wrap;html=1;rotation=-90;" vertex="1" parent="1">
          <mxGeometry x="-450" y="720" width="20" height="30" as="geometry" />
        </mxCell>
        <mxCell id="pazXSuaWY3IOzkwAcKcH-313" value="ciphertext [32]" style="text;html=1;align=center;verticalAlign=middle;whiteSpace=wrap;rounded=0;" vertex="1" parent="1">
          <mxGeometry x="-710" y="670" width="80" height="20" as="geometry" />
        </mxCell>
        <mxCell id="pazXSuaWY3IOzkwAcKcH-314" value="ciphertext [33]" style="text;html=1;align=center;verticalAlign=middle;whiteSpace=wrap;rounded=0;" vertex="1" parent="1">
          <mxGeometry x="-710" y="650" width="80" height="20" as="geometry" />
        </mxCell>
        <mxCell id="pazXSuaWY3IOzkwAcKcH-315" value="ciphertext [34]" style="text;html=1;align=center;verticalAlign=middle;whiteSpace=wrap;rounded=0;" vertex="1" parent="1">
          <mxGeometry x="-710" y="630" width="80" height="20" as="geometry" />
        </mxCell>
        <mxCell id="pazXSuaWY3IOzkwAcKcH-316" value="ciphertext [35]" style="text;html=1;align=center;verticalAlign=middle;whiteSpace=wrap;rounded=0;" vertex="1" parent="1">
          <mxGeometry x="-710" y="610" width="80" height="20" as="geometry" />
        </mxCell>
        <mxCell id="pazXSuaWY3IOzkwAcKcH-317" value="ciphertext [0]" style="text;html=1;align=center;verticalAlign=middle;whiteSpace=wrap;rounded=0;" vertex="1" parent="1">
          <mxGeometry x="1380" y="670" width="80" height="20" as="geometry" />
        </mxCell>
        <mxCell id="pazXSuaWY3IOzkwAcKcH-318" value="ciphertext [1]" style="text;html=1;align=center;verticalAlign=middle;whiteSpace=wrap;rounded=0;" vertex="1" parent="1">
          <mxGeometry x="1380" y="650" width="80" height="20" as="geometry" />
        </mxCell>
        <mxCell id="pazXSuaWY3IOzkwAcKcH-319" value="ciphertext [2]" style="text;html=1;align=center;verticalAlign=middle;whiteSpace=wrap;rounded=0;" vertex="1" parent="1">
          <mxGeometry x="1380" y="630" width="80" height="20" as="geometry" />
        </mxCell>
        <mxCell id="pazXSuaWY3IOzkwAcKcH-320" value="ciphertext [3]" style="text;html=1;align=center;verticalAlign=middle;whiteSpace=wrap;rounded=0;" vertex="1" parent="1">
          <mxGeometry x="1380" y="610" width="80" height="20" as="geometry" />
        </mxCell>
      </root>
    </mxGraphModel>
  </diagram>
</mxfile>
